<svg width="129" height="138" viewBox="0 0 129 138" fill="none" xmlns="http://www.w3.org/2000/svg">
<path d="M23.6924 23.4743L28.8404 18.0664C28.8404 18.0664 34.5032 9.56836 38.6216 11.8861C42.7401 14.2039 32.7014 19.6117 32.7014 19.6117L27.5536 28.1098L23.6924 23.4743Z" fill="#FFBE9D"/>
<path d="M7.47634 128.283C7.47634 128.283 3.61535 135.751 6.44673 136.266C9.27811 136.781 23.1775 137.553 23.435 136.781C23.6925 136.008 25.7515 133.433 24.2071 132.403C22.6628 131.373 16.4852 130.6 16.4852 130.6L14.4259 128.54L7.47634 128.283Z" fill="black"/>
<path d="M5.41704 55.4055C5.41704 55.4055 -2.81963 65.7062 3.87273 76.2642L5.41704 94.0329C5.41704 94.0329 2.58566 118.497 6.18919 126.738L6.70388 129.57H15.7127L13.396 107.938C13.396 107.938 13.6535 105.362 14.4256 104.848C15.1978 104.333 27.8104 76.5211 27.8104 76.5211C27.8104 76.5211 25.7512 72.6583 26.5233 71.8858C27.2955 71.1133 25.7512 55.6622 24.979 55.1472C24.2069 54.6323 5.41704 55.4055 5.41704 55.4055Z" fill="#6660BF"/>
<path d="M20.0894 125.965L21.119 131.888L11.0806 131.373L12.3676 124.935L20.0894 125.965Z" fill="#FFBE9D"/>
<path d="M18.2869 20.8982C22.5517 20.8982 26.0089 17.4393 26.0089 13.1726C26.0089 8.90588 22.5517 5.44702 18.2869 5.44702C14.0222 5.44702 10.5649 8.90588 10.5649 13.1726C10.5649 17.4393 14.0222 20.8982 18.2869 20.8982Z" fill="#FFBE9D"/>
<path d="M11.3376 14.4601L10.5654 23.7307L18.8021 27.5935C18.8021 27.5935 17.3865 18.9666 18.4159 16.6491L11.3376 14.4601Z" fill="#FFBE9D"/>
<path d="M19.8324 27.0786L19.06 23.9885L8.50667 20.1257C8.50667 20.1257 7.47706 20.1257 7.73452 21.9283C7.99198 23.7309 7.99198 23.4734 7.99198 23.4734C7.99198 23.4734 4.38845 25.0184 4.13099 27.5937C3.87353 30.1691 -0.244695 30.9414 0.0125369 34.8041C0.269769 38.6669 1.55616 40.7276 1.55616 40.7276C1.55616 40.7276 0.269086 43.8179 2.32831 45.6205C2.32831 45.6205 4.38754 49.2257 3.35792 51.8008C2.32831 54.3759 1.04147 58.7532 3.87262 57.9811C6.70377 57.2091 26.2662 55.9209 26.2662 55.9209C26.2662 55.9209 29.0976 45.3626 26.0087 41.4999C26.0087 41.4999 26.0087 39.1823 23.6923 34.5475C21.3758 29.9126 19.8324 27.0786 19.8324 27.0786Z" fill="#FAE499"/>
<path d="M6.18945 56.178C6.18945 56.178 9.53552 70.3415 13.654 71.8865C13.654 71.8865 14.4261 82.1872 18.8018 81.6722C23.1775 81.1573 18.8018 71.8865 18.8018 71.8865L13.9112 54.1178L6.18945 56.178Z" fill="#FFBE9D"/>
<path d="M19.3164 27.851C19.3164 27.851 23.1774 21.6705 24.207 22.7006C25.2366 23.7307 30.3845 26.821 30.1272 28.8809C29.87 30.9409 27.5526 30.9411 27.5526 30.9411L22.1473 35.0615L19.3164 27.851Z" fill="#FAE499"/>
<path d="M24.7225 73.9467L27.8111 76.168L29.8703 98.1532C29.8703 98.1532 22.4058 128.025 20.3465 128.283C18.2873 128.54 9.79319 128.54 10.0507 127.768C10.3081 126.995 11.595 123.905 11.595 123.133C11.595 122.36 14.2794 116.182 14.2794 116.182L17.7724 101.759L17.0003 90.4279L24.7225 73.9467Z" fill="#6660BF"/>
<path d="M20.8611 129.828C20.8611 129.828 10.0505 126.48 9.5356 127.252C9.02068 128.024 5.58712 135.811 10.3927 136.682C15.1984 137.553 32.4438 139.098 32.4438 136.78C32.4438 134.462 31.9292 132.917 30.3846 132.917C28.8401 132.917 21.8905 129.569 21.3758 128.797C20.8611 128.024 20.8611 129.828 20.8611 129.828Z" fill="black"/>
<path d="M10.9656 13.6801C10.6441 13.019 11.3568 12.2978 11.9968 12.6604L12.0105 12.6682C12.2348 12.8045 12.4141 13.004 12.5258 13.2416C12.6375 13.4793 12.6768 13.7446 12.6387 14.0044C13.5669 13.0778 12.8829 11.2196 13.8856 10.3746C14.3497 9.98344 15.1034 9.89728 15.3418 9.33903C15.4805 9.01398 15.3873 8.62875 15.5085 8.29709C15.6908 7.80472 16.2709 7.59911 16.7897 7.52207C18.4215 7.27862 20.072 7.6928 21.6698 8.10402C22.2574 8.25515 22.8753 8.42314 23.3032 8.85328C23.7541 9.30644 23.9108 9.96475 24.1872 10.5401C24.4636 11.1154 26.2765 11.0644 26.9104 10.9828C27.1307 10.3566 25.5035 10.3094 25.3706 9.65907C25.0074 7.88108 26.272 5.99118 25.6516 4.28613C25.2779 3.25878 24.3014 2.57881 23.3185 2.10103C20.5877 0.787734 17.4705 0.521644 14.5569 1.35314C14.2602 1.4186 13.9831 1.55264 13.7476 1.74453C13.3734 2.09397 13.3042 2.65495 13.0549 3.10218C12.4874 4.1211 11.1411 4.36341 10.2333 5.09557C8.85855 6.20453 8.70362 8.20659 8.65896 9.97364C8.63618 10.8626 8.62068 11.7874 8.98477 12.5991C9.34886 13.4109 10.2119 14.0724 11.0848 13.9023C11.0414 13.8303 11.0016 13.7561 10.9656 13.6801V13.6801Z" fill="black"/>
<path d="M12.3078 30.3603C11.3114 29.6685 10.1139 29.3266 8.9026 29.3882C7.69131 29.4498 6.53459 29.9113 5.6134 30.7006C3.83944 32.2087 1.93104 34.3706 2.07071 36.6065C2.32817 40.7269 3.87247 57.7228 5.9317 57.9804C7.99092 58.238 15.4554 56.1778 15.4554 54.8901C15.4554 53.6025 13.6537 52.0574 13.6537 52.0574L15.841 38.9252C16.1169 37.3331 15.9432 35.6956 15.3394 34.1969C14.7356 32.6983 13.7257 31.398 12.4233 30.4424C12.3851 30.415 12.3466 30.3877 12.3078 30.3603Z" fill="#FAE499"/>
<g opacity="0.5">
<path opacity="0.5" d="M53.3492 31.9035C60.6689 31.9035 66.6027 25.9669 66.6027 18.6438C66.6027 11.3207 60.6689 5.38416 53.3492 5.38416C46.0295 5.38416 40.0957 11.3207 40.0957 18.6438C40.0957 25.9669 46.0295 31.9035 53.3492 31.9035Z" fill="url(#paint0_linear)"/>
</g>
<path d="M53.3746 31.5393C60.54 31.5393 66.3487 25.7278 66.3487 18.5591C66.3487 11.3903 60.54 5.57886 53.3746 5.57886C46.2091 5.57886 40.4004 11.3903 40.4004 18.5591C40.4004 25.7278 46.2091 31.5393 53.3746 31.5393Z" fill="#F5F5F5"/>
<path d="M60.5121 19.8382C60.5121 24.156 57.4112 26.2809 53.3853 26.2809C49.3593 26.2809 45.9326 24.156 45.9326 19.8382C45.9326 15.5205 49.1964 12.0197 53.2224 12.0197C57.2483 12.0197 60.5121 15.5207 60.5121 19.8382Z" fill="#333333"/>
<path d="M53.3851 31.5908C55.9202 31.5948 58.4004 30.8522 60.5165 29.4556C60.0381 26.8417 58.2192 26.6926 58.2192 26.6926H48.1867C48.1867 26.6926 46.4699 26.8337 45.9336 29.2383C48.1151 30.7735 50.7181 31.5952 53.3851 31.5908V31.5908Z" fill="#454279"/>
<path opacity="0.1" d="M51.2285 23.5041H55.2413V26.8276C55.2413 27.3302 55.0416 27.8123 54.6864 28.1678C54.3311 28.5232 53.8492 28.7229 53.3468 28.7229H53.123C52.6206 28.7229 52.1387 28.5232 51.7834 28.1678C51.4281 27.8123 51.2285 27.3302 51.2285 26.8276V23.5041Z" fill="black"/>
<path d="M51.5896 23.3555H54.8794C54.9752 23.3555 55.0672 23.3936 55.1349 23.4614C55.2027 23.5292 55.2408 23.6211 55.2408 23.717V26.6789C55.2408 27.1816 55.0412 27.6637 54.6859 28.0192C54.3306 28.3746 53.8487 28.5743 53.3463 28.5743H53.1225C52.6201 28.5743 52.1382 28.3746 51.7829 28.0192C51.4276 27.6637 51.228 27.1816 51.228 26.6789V23.7172C51.228 23.6213 51.2661 23.5294 51.3339 23.4616C51.4016 23.3938 51.4935 23.3557 51.5894 23.3557L51.5896 23.3555Z" fill="#FFBE9D"/>
<path opacity="0.1" d="M51.2358 25.02C52.5291 25.5034 53.9527 25.5074 55.2486 25.0311V24.5381H51.2358V25.02Z" fill="black"/>
<path d="M53.2494 25.2887C56.4258 25.2887 59.0008 22.7125 59.0008 19.5346C59.0008 16.3568 56.4258 13.7806 53.2494 13.7806C50.073 13.7806 47.498 16.3568 47.498 19.5346C47.498 22.7125 50.073 25.2887 53.2494 25.2887Z" fill="#FFBE9D"/>
<path opacity="0.1" d="M46.6201 19.9114C46.6201 19.9114 50.2018 19.4771 52.9149 16.0023C52.9149 16.0023 56.4966 19.9474 58.9928 19.5127C58.9928 19.5127 60.4398 17.9925 58.9928 16.4724C57.5458 14.9522 56.4241 13.0338 54.5068 13.2873C52.5895 13.5407 50.238 13.6492 49.225 14.554C48.212 15.4587 46.6201 19.9114 46.6201 19.9114Z" fill="black"/>
<path d="M46.6201 19.8385C46.6201 19.8385 50.2018 19.4042 52.9149 15.9294C52.9149 15.9294 56.4966 19.8745 58.9928 19.4398C58.9928 19.4398 60.4398 17.9196 58.9928 16.3994C57.5458 14.8793 56.4241 12.9611 54.5068 13.2143C52.5895 13.4676 50.238 13.5763 49.225 14.481C48.212 15.3858 46.6201 19.8385 46.6201 19.8385Z" fill="#333333"/>
<path d="M47.4954 20.5328C47.7909 20.5328 48.0304 20.0835 48.0304 19.5292C48.0304 18.9749 47.7909 18.5255 47.4954 18.5255C47.2 18.5255 46.9604 18.9749 46.9604 19.5292C46.9604 20.0835 47.2 20.5328 47.4954 20.5328Z" fill="#FFBE9D"/>
<path d="M59.0003 20.5328C59.2958 20.5328 59.5353 20.0835 59.5353 19.5292C59.5353 18.9749 59.2958 18.5255 59.0003 18.5255C58.7048 18.5255 58.4653 18.9749 58.4653 19.5292C58.4653 20.0835 58.7048 20.5328 59.0003 20.5328Z" fill="#FFBE9D"/>
<g opacity="0.5">
<path opacity="0.5" d="M109.479 32.8492C116.798 32.8492 122.732 26.9127 122.732 19.5896C122.732 12.2665 116.798 6.3299 109.479 6.3299C102.159 6.3299 96.2251 12.2665 96.2251 19.5896C96.2251 26.9127 102.159 32.8492 109.479 32.8492Z" fill="url(#paint1_linear)"/>
</g>
<path d="M109.504 32.4853C116.669 32.4853 122.478 26.6738 122.478 19.5051C122.478 12.3363 116.669 6.52484 109.504 6.52484C102.339 6.52484 96.5298 12.3363 96.5298 19.5051C96.5298 26.6738 102.339 32.4853 109.504 32.4853Z" fill="#F5F5F5"/>
<path d="M109.515 32.5365C112.05 32.5405 114.53 31.7979 116.646 30.4013C116.168 27.7874 114.349 27.6384 114.349 27.6384H104.318C104.318 27.6384 102.601 27.7795 102.064 30.1841C104.246 31.719 106.848 32.5407 109.515 32.5365V32.5365Z" fill="#454279"/>
<path d="M109.379 25.4971C112.838 25.4971 115.642 22.692 115.642 19.2317C115.642 15.7715 112.838 12.9664 109.379 12.9664C105.92 12.9664 103.117 15.7715 103.117 19.2317C103.117 22.692 105.92 25.4971 109.379 25.4971Z" fill="#72351C"/>
<path opacity="0.1" d="M107.357 24.4498H111.37V27.7733C111.37 28.276 111.171 28.7581 110.815 29.1135C110.46 29.469 109.978 29.6687 109.476 29.6687H109.252C108.749 29.6687 108.268 29.469 107.912 29.1135C107.557 28.7581 107.357 28.276 107.357 27.7733V24.4498Z" fill="black"/>
<path d="M107.719 24.3012H111.008C111.056 24.3011 111.103 24.3105 111.147 24.3286C111.191 24.3467 111.231 24.3734 111.264 24.4069C111.298 24.4405 111.324 24.4804 111.343 24.5243C111.361 24.5682 111.37 24.6152 111.37 24.6627V27.6247C111.37 28.1274 111.171 28.6095 110.815 28.9649C110.46 29.3204 109.978 29.5201 109.476 29.5201H109.252C108.749 29.5201 108.268 29.3204 107.912 28.9649C107.557 28.6095 107.357 28.1274 107.357 27.6247V24.6627C107.357 24.6153 107.367 24.5682 107.385 24.5244C107.403 24.4805 107.43 24.4407 107.463 24.4071C107.497 24.3735 107.537 24.3469 107.58 24.3287C107.624 24.3106 107.671 24.3012 107.719 24.3012H107.719Z" fill="#FFBE9D"/>
<path opacity="0.1" d="M107.365 25.966C108.658 26.4494 110.082 26.4534 111.378 25.9771V25.4841H107.365V25.966Z" fill="black"/>
<path d="M109.379 26.2344C112.555 26.2344 115.13 23.6583 115.13 20.4804C115.13 17.3025 112.555 14.7263 109.379 14.7263C106.202 14.7263 103.627 17.3025 103.627 20.4804C103.627 23.6583 106.202 26.2344 109.379 26.2344Z" fill="#FFBE9D"/>
<path opacity="0.1" d="M105.282 15.2465C105.282 15.2465 107.706 20.169 114.544 17.3097L112.952 14.8123L110.13 13.7988L105.282 15.2465Z" fill="black"/>
<path d="M105.282 15.174C105.282 15.174 107.706 20.0965 114.544 17.2372L112.952 14.7398L110.13 13.7263L105.282 15.174Z" fill="#72351C"/>
<path d="M105.261 14.8414C105.424 14.3353 105.706 13.8757 106.084 13.5013C107.216 12.3826 109.07 12.1464 110.021 10.8706C110.073 10.9609 110.105 11.0611 110.116 11.1646C110.127 11.2682 110.116 11.3728 110.084 11.4718C110.051 11.5708 109.999 11.6619 109.929 11.7393C109.86 11.8167 109.775 11.8787 109.68 11.9212C110.59 11.9153 111.647 11.8355 112.163 11.0846C112.29 11.3813 112.331 11.7079 112.28 12.0267C112.229 12.3455 112.089 12.6433 111.876 12.8854C112.684 12.9221 113.545 13.4706 113.598 14.278C113.598 14.5483 113.529 14.8142 113.399 15.0512C113.269 15.2881 113.081 15.4884 112.854 15.6336C112.394 15.9186 111.884 16.111 111.351 16.1998C109.815 16.5387 104.258 17.9586 105.261 14.8414Z" fill="#72351C"/>
<path d="M115.13 20.5308H114.979L112.012 23.173C109.154 21.8338 107.056 23.173 107.056 23.173L103.944 20.6384L103.63 20.6778C103.649 22.2037 104.274 23.6592 105.366 24.7243C106.459 25.7893 107.929 26.3766 109.454 26.357C110.979 26.3374 112.434 25.7125 113.499 24.6197C114.563 23.5269 115.15 22.0557 115.131 20.5299L115.13 20.5308ZM109.37 24.1864C108.251 24.1864 107.344 23.9585 107.344 23.6797C107.344 23.4009 108.251 23.173 109.37 23.173C110.489 23.173 111.396 23.4009 111.396 23.6797C111.396 23.9585 110.489 24.1864 109.37 24.1864Z" fill="#72351C"/>
<path d="M103.625 21.4786C103.921 21.4786 104.16 21.0292 104.16 20.4749C104.16 19.9206 103.921 19.4713 103.625 19.4713C103.33 19.4713 103.09 19.9206 103.09 20.4749C103.09 21.0292 103.33 21.4786 103.625 21.4786Z" fill="#FFBE9D"/>
<path d="M115.129 21.4786C115.425 21.4786 115.664 21.0292 115.664 20.4749C115.664 19.9206 115.425 19.4713 115.129 19.4713C114.834 19.4713 114.594 19.9206 114.594 20.4749C114.594 21.0292 114.834 21.4786 115.129 21.4786Z" fill="#FFBE9D"/>
<g opacity="0.5">
<path opacity="0.5" d="M81.4151 54.6036C88.7348 54.6036 94.6686 48.667 94.6686 41.3439C94.6686 34.0208 88.7348 28.0842 81.4151 28.0842C74.0954 28.0842 68.1616 34.0208 68.1616 41.3439C68.1616 48.667 74.0954 54.6036 81.4151 54.6036Z" fill="url(#paint2_linear)"/>
</g>
<path d="M81.4151 54.2519C88.5805 54.2519 94.3892 48.4404 94.3892 41.2717C94.3892 34.1029 88.5805 28.2914 81.4151 28.2914C74.2496 28.2914 68.4409 34.1029 68.4409 41.2717C68.4409 48.4404 74.2496 54.2519 81.4151 54.2519Z" fill="#F5F5F5"/>
<path d="M76.352 41.3872C76.352 41.3872 74.8806 48.6373 74.0781 48.2359C74.0781 48.2359 81.8211 54.9268 88.6574 48.2359C88.6574 48.2359 87.4537 43.1269 85.7149 41.3872H76.352Z" fill="#333333"/>
<path d="M81.4519 54.2908C83.9869 54.2948 86.4671 53.5523 88.5833 52.1556C88.1048 49.5418 86.2859 49.3927 86.2859 49.3927H76.2546C76.2546 49.3927 74.5378 49.5338 74.0015 51.9384C76.1826 53.4733 78.7852 54.2951 81.4519 54.2908V54.2908Z" fill="#454279"/>
<path d="M81.3158 46.7398C84.4922 46.7398 87.0672 44.1636 87.0672 40.9858C87.0672 37.8079 84.4922 35.2317 81.3158 35.2317C78.1394 35.2317 75.5645 37.8079 75.5645 40.9858C75.5645 44.1636 78.1394 46.7398 81.3158 46.7398Z" fill="#333333"/>
<path opacity="0.1" d="M79.2944 46.2043H83.3072V49.5278C83.3072 50.0305 83.1076 50.5126 82.7523 50.868C82.397 51.2235 81.9151 51.4232 81.4127 51.4232H81.1889C80.6865 51.4232 80.2046 51.2235 79.8493 50.868C79.494 50.5126 79.2944 50.0305 79.2944 49.5278V46.2043Z" fill="black"/>
<path d="M79.656 46.0555H82.9458C83.0416 46.0555 83.1336 46.0936 83.2013 46.1614C83.2691 46.2292 83.3072 46.3212 83.3072 46.4171V49.3781C83.3072 49.8808 83.1076 50.3629 82.7523 50.7183C82.397 51.0738 81.9151 51.2735 81.4127 51.2735H81.1889C80.6865 51.2735 80.2046 51.0738 79.8493 50.7183C79.494 50.3629 79.2944 49.8808 79.2944 49.3781V46.4171C79.2944 46.3696 79.3038 46.3226 79.3219 46.2787C79.3401 46.2349 79.3667 46.195 79.4003 46.1614C79.4338 46.1279 79.4737 46.1012 79.5175 46.0831C79.5613 46.0649 79.6083 46.0555 79.6558 46.0555H79.656Z" fill="#FFBE9D"/>
<path opacity="0.1" d="M79.3018 47.72C80.595 48.2035 82.0186 48.2075 83.3145 47.7312V47.2382H79.3018V47.72Z" fill="black"/>
<path d="M81.3158 47.9888C84.4922 47.9888 87.0672 45.4126 87.0672 42.2347C87.0672 39.0568 84.4922 36.4807 81.3158 36.4807C78.1394 36.4807 75.5645 39.0568 75.5645 42.2347C75.5645 45.4126 78.1394 47.9888 81.3158 47.9888Z" fill="#FFBE9D"/>
<path d="M75.8174 40.0489H86.7854C86.7854 40.0489 85.8492 35.6181 81.7028 35.9003C77.5563 36.1825 75.8174 40.0489 75.8174 40.0489Z" fill="#333333"/>
<path d="M75.6834 42.9931C75.9789 42.9931 76.2184 42.5437 76.2184 41.9894C76.2184 41.4351 75.9789 40.9858 75.6834 40.9858C75.388 40.9858 75.1484 41.4351 75.1484 41.9894C75.1484 42.5437 75.388 42.9931 75.6834 42.9931Z" fill="#FFBE9D"/>
<path d="M86.9188 42.9931C87.2142 42.9931 87.4537 42.5437 87.4537 41.9894C87.4537 41.4351 87.2142 40.9858 86.9188 40.9858C86.6233 40.9858 86.3838 41.4351 86.3838 41.9894C86.3838 42.5437 86.6233 42.9931 86.9188 42.9931Z" fill="#FFBE9D"/>
<path opacity="0.1" d="M75.8174 40.1973H86.7854C86.7854 40.1973 85.8492 35.7665 81.7028 36.0487C77.5563 36.3309 75.8174 40.1973 75.8174 40.1973Z" fill="black"/>
<path d="M81.4155 29.2586C83.8047 29.2586 86.1403 29.9674 88.1269 31.2954C90.1134 32.6234 91.6618 34.5109 92.5761 36.7193C93.4904 38.9277 93.7296 41.3577 93.2635 43.7022C92.7974 46.0466 91.6469 48.2 89.9575 49.8903C88.268 51.5805 86.1156 52.7315 83.7722 53.1979C81.4289 53.6642 79 53.4249 76.7927 52.5101C74.5853 51.5954 72.6987 50.0463 71.3713 48.0588C70.0439 46.0713 69.3354 43.7347 69.3354 41.3443C69.3354 38.139 70.6081 35.0649 72.8736 32.7984C75.1391 30.5319 78.2117 29.2586 81.4155 29.2586ZM81.4155 26.2739C78.4362 26.2739 75.5239 27.1577 73.0467 28.8137C70.5695 30.4697 68.6388 32.8234 67.4987 35.5771C66.3586 38.3309 66.0603 41.3611 66.6415 44.2845C67.2227 47.2078 68.6574 49.8931 70.764 52.0008C72.8707 54.1084 75.5548 55.5438 78.4768 56.1253C81.3988 56.7068 84.4276 56.4083 87.1801 55.2677C89.9326 54.127 92.2851 52.1954 93.9403 49.7171C95.5955 47.2387 96.479 44.325 96.479 41.3443C96.479 37.3474 94.892 33.5142 92.067 30.6879C89.2421 27.8616 85.4106 26.2739 81.4155 26.2739V26.2739Z" fill="#3D71F5"/>
<path d="M82.7166 22.7505H79.1855V26.4692H82.7166V22.7505Z" fill="#3D71F5"/>
<path d="M89.0139 24.2575L87.0996 27.4444L90.1257 29.2637L92.04 26.0768L89.0139 24.2575Z" fill="#3D71F5"/>
<path d="M96.537 30.3466L93.2847 32.1501L94.9972 35.2413L98.2496 33.4377L96.537 30.3466Z" fill="#3D71F5"/>
<path d="M95.2074 47.2723L93.3359 50.268L96.4879 52.2389L98.3594 49.2432L95.2074 47.2723Z" fill="#3D71F5"/>
<path d="M66.2966 30.3459L64.584 33.4371L67.8364 35.2407L69.5489 32.1495L66.2966 30.3459Z" fill="#3D71F5"/>
<path d="M67.6242 47.2722L64.4722 49.2432L66.3436 52.2389L69.4956 50.268L67.6242 47.2722Z" fill="#3D71F5"/>
<path d="M73.8167 24.2574L70.7905 26.0767L72.7048 29.2637L75.7309 27.4443L73.8167 24.2574Z" fill="#3D71F5"/>
<path d="M82.7166 56.2191H79.1855V59.9379H82.7166V56.2191Z" fill="#3D71F5"/>
<path d="M90.1262 53.4241L87.1001 55.2434L89.0144 58.4304L92.0405 56.611L90.1262 53.4241Z" fill="#3D71F5"/>
<path d="M72.7053 53.4244L70.791 56.6113L73.8171 58.4307L75.7314 55.2437L72.7053 53.4244Z" fill="#3D71F5"/>
<path d="M66.7335 39.8566H62.459V43.0175H66.7335V39.8566Z" fill="#3D71F5"/>
<path d="M96.0976 43.0175H100.372V39.8566H96.0976V43.0175Z" fill="#3D71F5"/>
<path d="M109.479 7.50409C111.868 7.50409 114.204 8.2129 116.19 9.5409C118.177 10.8689 119.725 12.7564 120.64 14.9648C121.554 17.1732 121.793 19.6032 121.327 21.9476C120.861 24.292 119.71 26.4455 118.021 28.1357C116.331 29.826 114.179 30.977 111.836 31.4434C109.492 31.9097 107.063 31.6703 104.856 30.7556C102.649 29.8409 100.762 28.2918 99.4347 26.3043C98.1074 24.3168 97.3989 21.9802 97.3989 19.5898C97.3989 16.3845 98.6716 13.3104 100.937 11.0439C103.203 8.7774 106.275 7.50409 109.479 7.50409ZM109.479 4.51935C106.5 4.51935 103.587 5.40322 101.11 7.05918C98.633 8.71515 96.7023 11.0688 95.5622 13.8226C94.4221 16.5764 94.1237 19.6065 94.705 22.5299C95.2862 25.4533 96.7208 28.1386 98.8275 30.2463C100.934 32.3539 103.618 33.7892 106.54 34.3707C109.462 34.9522 112.491 34.6538 115.244 33.5131C117.996 32.3725 120.349 30.4409 122.004 27.9625C123.659 25.4842 124.542 22.5705 124.542 19.5898C124.543 17.6107 124.153 15.651 123.396 13.8226C122.639 11.9941 121.529 10.3328 120.131 8.93332C118.732 7.53389 117.071 6.42381 115.244 5.66646C113.416 4.90911 111.457 4.51932 109.479 4.51935V4.51935Z" fill="#3D71F5"/>
<path d="M110.78 0.996399H107.249V4.71512H110.78V0.996399Z" fill="#3D71F5"/>
<path d="M117.077 2.50312L115.163 5.69006L118.189 7.50941L120.103 4.32247L117.077 2.50312Z" fill="#3D71F5"/>
<path d="M124.6 8.59217L121.348 10.3958L123.06 13.4869L126.313 11.6833L124.6 8.59217Z" fill="#3D71F5"/>
<path d="M123.27 25.5179L121.399 28.5137L124.551 30.4846L126.422 27.4888L123.27 25.5179Z" fill="#3D71F5"/>
<path d="M94.3595 8.59161L92.647 11.6827L95.8993 13.4863L97.6119 10.3952L94.3595 8.59161Z" fill="#3D71F5"/>
<path d="M95.6872 25.5177L92.5352 27.4886L94.4066 30.4844L97.5586 28.5135L95.6872 25.5177Z" fill="#3D71F5"/>
<path d="M101.88 2.50279L98.854 4.32214L100.768 7.50909L103.794 5.68974L101.88 2.50279Z" fill="#3D71F5"/>
<path d="M110.78 34.4644H107.249V38.1831H110.78V34.4644Z" fill="#3D71F5"/>
<path d="M118.189 31.6695L115.163 33.4888L117.077 36.6758L120.103 34.8564L118.189 31.6695Z" fill="#3D71F5"/>
<path d="M100.768 31.6698L98.854 34.8568L101.88 36.6761L103.794 33.4892L100.768 31.6698Z" fill="#3D71F5"/>
<path d="M94.7965 18.1022H90.522V21.2632H94.7965V18.1022Z" fill="#3D71F5"/>
<path d="M124.161 21.2632H128.436V18.1022H124.161V21.2632Z" fill="#3D71F5"/>
<path d="M53.3452 6.574C53.4871 6.574 53.6293 6.5765 53.7719 6.58152C56.9751 6.63611 60.0254 7.9615 62.2518 10.2661C64.4781 12.5708 65.6983 15.6658 65.6437 18.8705C65.5891 22.0751 64.2643 25.1268 61.9608 27.3542C59.6572 29.5817 56.5636 30.8024 53.3605 30.7478C53.2187 30.7459 53.0763 30.7434 52.9337 30.7384C51.3477 30.7114 49.7825 30.3721 48.3275 29.7399C46.8725 29.1077 45.5563 28.1949 44.4539 27.0538C42.2275 24.7492 41.0074 21.6541 41.062 18.4495C41.1165 15.2448 42.4413 12.1931 44.7448 9.96569C47.0484 7.73827 50.142 6.51758 53.3452 6.57217V6.574ZM53.3452 3.58949C51.3674 3.55562 49.4024 3.9118 47.5622 4.63771C45.7221 5.36362 44.0429 6.44504 42.6205 7.82022C41.198 9.19539 40.0603 10.8374 39.2722 12.6525C38.484 14.4676 38.061 16.4202 38.0271 18.3989C37.9933 20.3775 38.3493 22.3435 39.0749 24.1845C39.8004 26.0255 40.8813 27.7055 42.2559 29.1286C45.0319 32.0026 48.8354 33.6557 52.8296 33.7241C53.0057 33.7279 53.1841 33.7309 53.3598 33.7309C57.354 33.7993 61.2118 32.2774 64.0844 29.5C66.9571 26.7227 68.6093 22.9174 68.6776 18.9213C68.7459 14.9252 67.2247 11.0656 64.4487 8.19165C61.6727 5.31766 57.8692 3.66467 53.8749 3.59633C53.6988 3.59245 53.5206 3.58949 53.3456 3.58949H53.3452Z" fill="#3D71F5"/>
<path d="M51.7681 3.48629e-06L51.6392 3.71649L55.1681 3.83904L55.2971 0.122554L51.7681 3.48629e-06Z" fill="#3D71F5"/>
<path d="M61.5394 1.84759L59.5156 4.9668L62.4774 6.89023L64.5012 3.77102L61.5394 1.84759Z" fill="#3D71F5"/>
<path d="M68.8437 8.19507L65.5322 9.88403L67.136 13.0314L70.4475 11.3424L68.8437 8.19507Z" fill="#3D71F5"/>
<path d="M66.9295 25.0637L64.9556 27.9929L68.0375 30.0717L70.0115 27.1425L66.9295 25.0637Z" fill="#3D71F5"/>
<path d="M38.6232 7.14519L36.8052 10.1737L39.9917 12.0883L41.8097 9.05981L38.6232 7.14519Z" fill="#3D71F5"/>
<path d="M39.3639 24.1063L36.145 25.9656L37.9106 29.025L41.1295 27.1656L39.3639 24.1063Z" fill="#3D71F5"/>
<path d="M46.3512 1.31974L43.2632 3.03308L45.0659 6.28517L48.1539 4.57183L46.3512 1.31974Z" fill="#3D71F5"/>
<path d="M50.6075 33.448L50.4785 37.1645L54.0075 37.287L54.1364 33.5706L50.6075 33.448Z" fill="#3D71F5"/>
<path d="M61.6393 31.0349L58.5513 32.7482L60.354 36.0003L63.442 34.287L61.6393 31.0349Z" fill="#3D71F5"/>
<path d="M44.2284 30.4308L42.2046 33.55L45.1664 35.4734L47.1902 32.3542L44.2284 30.4308Z" fill="#3D71F5"/>
<path d="M38.7314 16.6636L34.4595 16.5153L34.3499 19.6743L38.6218 19.8226L38.7314 16.6636Z" fill="#3D71F5"/>
<path d="M67.9673 20.8426L72.2393 20.991L72.3489 17.8319L68.0769 17.6836L67.9673 20.8426Z" fill="#3D71F5"/>
<defs>
<linearGradient id="paint0_linear" x1="53.3492" y1="31.9035" x2="53.3492" y2="5.38416" gradientUnits="userSpaceOnUse">
<stop stop-color="#808080" stop-opacity="0.251"/>
<stop offset="0.535" stop-color="#808080" stop-opacity="0.122"/>
<stop offset="1" stop-color="#808080" stop-opacity="0.102"/>
</linearGradient>
<linearGradient id="paint1_linear" x1="109.479" y1="32.8492" x2="109.479" y2="6.3299" gradientUnits="userSpaceOnUse">
<stop stop-color="#808080" stop-opacity="0.251"/>
<stop offset="0.535" stop-color="#808080" stop-opacity="0.122"/>
<stop offset="1" stop-color="#808080" stop-opacity="0.102"/>
</linearGradient>
<linearGradient id="paint2_linear" x1="81.4151" y1="54.6036" x2="81.4151" y2="28.0842" gradientUnits="userSpaceOnUse">
<stop stop-color="#808080" stop-opacity="0.251"/>
<stop offset="0.535" stop-color="#808080" stop-opacity="0.122"/>
<stop offset="1" stop-color="#808080" stop-opacity="0.102"/>
</linearGradient>
</defs>
</svg>
