<svg xmlns="http://www.w3.org/2000/svg" style="width:20px !important;" class="w-5 h-5" viewBox="0 0 20 20" fill="#545454">
                            <path d="M6.90008 16.7716C13.1867 16.7716 16.6267 11.5583 16.6267 7.04498C16.6267 6.89831 16.6267 6.75164 16.6201 6.60498C17.2867 6.12498 17.8667 5.51831 18.3267 4.83164C17.7134 5.10498 17.0534 5.28498 16.3601 5.37164C17.0667 4.95164 17.6067 4.27831 17.8667 3.47831C17.2067 3.87164 16.4734 4.15164 15.6934 4.30498C15.0667 3.63831 14.1801 3.22498 13.2001 3.22498C11.3134 3.22498 9.78008 4.75831 9.78008 6.64498C9.78008 6.91164 9.81341 7.17164 9.86675 7.42498C7.02675 7.28498 4.50675 5.91831 2.82008 3.85164C2.52675 4.35831 2.36008 4.94498 2.36008 5.57164C2.36008 6.75831 2.96675 7.80498 3.88008 8.41831C3.32008 8.39831 2.79341 8.24498 2.33341 7.99164C2.33341 8.00498 2.33341 8.01831 2.33341 8.03831C2.33341 9.69164 3.51341 11.0783 5.07341 11.3916C4.78675 11.4716 4.48675 11.5116 4.17341 11.5116C3.95341 11.5116 3.74008 11.4916 3.53341 11.4516C3.96675 12.8116 5.23341 13.7983 6.72675 13.825C5.55341 14.745 4.08008 15.2916 2.48008 15.2916C2.20675 15.2916 1.93341 15.2783 1.66675 15.245C3.17341 16.205 4.97341 16.7716 6.90008 16.7716Z"></path>
                        </svg>
