<svg xmlns="http://www.w3.org/2000/svg" style="width:20px !important;" class="w-5 h-5"
                             viewBox="0 0 20 20" fill="#545454">
                            <path fill-rule="evenodd" clip-rule="evenodd"
                                  d="M2.89661 1.66669H17.0987C17.7779 1.66669 18.3334 2.20419 18.3334 2.86738V17.1327C18.3334 17.7965 17.7779 18.3334 17.0987 18.3334H2.89661C2.21675 18.3334 1.66675 17.7965 1.66675 17.1327V2.86738C1.66675 2.20419 2.21675 1.66669 2.89661 1.66669ZM3.94036 5.39446C3.94036 6.18544 4.57855 6.82849 5.373 6.82849C6.16397 6.82849 6.80633 6.18544 6.80633 5.39446C6.80633 4.60419 6.16466 3.96183 5.373 3.96183C4.57925 3.96183 3.94036 4.60419 3.94036 5.39446ZM13.398 15.8695H15.8661H15.8667V11.5042C15.8667 9.36183 15.4042 7.71599 12.9036 7.71599C11.7001 7.71599 10.8945 8.37571 10.5633 9.00071H10.5313V7.91669H8.1605V15.8695H10.6286V11.934C10.6286 10.8965 10.8251 9.89308 12.1119 9.89308C13.3792 9.89308 13.398 11.0799 13.398 12.0021V15.8695ZM4.1355 15.8695V7.91669H6.6105V15.8695H4.1355Z"></path>
                        </svg>
