<svg width="190" height="138" viewBox="0 0 190 138" fill="none" xmlns="http://www.w3.org/2000/svg">
<path opacity="0.1" d="M71.7447 62.4723H52.1541C51.3026 62.4723 50.6123 63.195 50.6123 64.0865V68.0341C50.6123 68.9256 51.3026 69.6483 52.1541 69.6483H71.7447C72.5962 69.6483 73.2865 68.9256 73.2865 68.0341V64.0865C73.2865 63.195 72.5962 62.4723 71.7447 62.4723Z" fill="#6C63FF"/>
<path opacity="0.1" d="M95.4752 69.6483H75.8846C75.0331 69.6483 74.3428 70.3709 74.3428 71.2624V75.2101C74.3428 76.1016 75.0331 76.8242 75.8846 76.8242H95.4752C96.3267 76.8242 97.017 76.1016 97.017 75.2101V71.2624C97.017 70.3709 96.3267 69.6483 95.4752 69.6483Z" fill="#6C63FF"/>
<path opacity="0.1" d="M71.7447 51.7064H52.1541C51.3026 51.7064 50.6123 52.429 50.6123 53.3205V57.2682C50.6123 58.1597 51.3026 58.8824 52.1541 58.8824H71.7447C72.5962 58.8824 73.2865 58.1597 73.2865 57.2682V53.3205C73.2865 52.429 72.5962 51.7064 71.7447 51.7064Z" fill="#6C63FF"/>
<path opacity="0.1" d="M71.7447 37.3525H52.1541C51.3026 37.3525 50.6123 38.0752 50.6123 38.9667V42.9144C50.6123 43.8058 51.3026 44.5285 52.1541 44.5285H71.7447C72.5962 44.5285 73.2865 43.8058 73.2865 42.9144V38.9667C73.2865 38.0752 72.5962 37.3525 71.7447 37.3525Z" fill="#6C63FF"/>
<path opacity="0.1" d="M71.7447 26.5886H52.1541C51.3026 26.5886 50.6123 27.3113 50.6123 28.2028V32.1504C50.6123 33.0419 51.3026 33.7646 52.1541 33.7646H71.7447C72.5962 33.7646 73.2865 33.0419 73.2865 32.1504V28.2028C73.2865 27.3113 72.5962 26.5886 71.7447 26.5886Z" fill="#6C63FF"/>
<path d="M94.875 138C147.273 138 189.75 129.915 189.75 119.941C189.75 109.967 147.273 101.882 94.875 101.882C42.477 101.882 0 109.967 0 119.941C0 129.915 42.477 138 94.875 138Z" fill="#3D71F5"/>
<path d="M41.6263 58.287L33.6479 109.492L69.7239 105.497L68.163 101.14L39.9786 103.591L46.5693 58.1962L41.6263 58.287Z" fill="#BDD1F9"/>
<path d="M32.2603 0.181621L80.8241 0L94.873 111.308L46.1356 118.208L32.2603 0.181621Z" fill="#BDD1F9"/>
<path d="M37.5503 4.44867H76.7484L90.4504 107.949L50.0382 113.759L37.5503 4.44867Z" fill="white"/>
<path d="M74.518 103.293C74.7644 103.787 74.9482 104.321 75.269 104.765C76.2055 106.076 77.9833 106.282 79.3172 107.137C79.384 107.172 79.439 107.228 79.4752 107.297C79.5358 107.447 79.4007 107.605 79.2706 107.7C78.2593 108.442 76.9325 108.459 75.6959 108.45C75.2803 108.465 74.8646 108.424 74.4593 108.326C73.8054 108.145 73.2451 107.667 72.6 107.473C72.2654 107.385 71.923 107.335 71.5784 107.322L70.2237 107.226C69.8631 107.221 69.5059 107.151 69.1674 107.021C68.9988 106.953 68.8493 106.842 68.7328 106.698C68.6163 106.554 68.5367 106.381 68.5013 106.195C68.4631 105.894 68.5864 105.602 68.6592 105.307C68.8327 104.61 68.779 103.768 69.2976 103.292C69.5113 103.121 69.7563 102.997 70.0174 102.929C70.9601 102.596 71.9225 102.328 72.8984 102.126C73.701 101.96 74.1626 102.577 74.518 103.293Z" fill="black"/>
<path d="M59.1958 107.221C59.2304 107.607 59.2408 108.051 58.9737 108.321C58.8074 108.466 58.6065 108.56 58.3927 108.593C57.1108 108.906 55.6817 108.928 54.5665 108.198C54.4505 108.128 54.3481 108.036 54.2648 107.927C54.1717 107.778 54.1189 107.605 54.112 107.427C54.107 106.91 54.1913 106.397 54.3611 105.911C54.6853 104.735 54.9315 103.537 55.0981 102.325C55.112 102.225 58.3711 102.87 58.5877 103.208C58.86 103.625 58.8619 104.628 58.9347 105.125C59.044 105.82 59.131 106.518 59.1958 107.221Z" fill="black"/>
<path d="M71.3265 59.9699L72.1937 68.4116C72.3672 70.1366 72.5492 71.8707 72.4297 73.6011C72.2908 75.5985 71.7567 77.5959 71.9823 79.5755C72.0707 80.3454 72.2728 81.1008 72.3014 81.8762C72.3069 82.3914 72.282 82.9066 72.2269 83.4186C71.8349 88.541 73.075 93.6233 73.7688 98.7094C73.8803 99.3367 73.9049 99.9776 73.8416 100.612C73.7513 101.257 73.5718 102.103 74.1191 102.408L68.9712 104.362C68.3138 103.499 68.7492 102.157 68.6242 101.062C68.5097 100.077 67.993 99.1975 67.7172 98.2479C67.4682 97.3946 67.4155 96.4956 67.3339 95.6096C66.8846 90.7852 65.5059 86.0858 65.1832 81.2494C65.1728 80.7824 65.1147 80.318 65.0097 79.864C64.8362 79.2629 64.4895 78.7382 64.2361 78.1736C63.8798 77.3096 63.6225 76.4044 63.4695 75.4771L62.3683 70.0751C61.2547 71.811 61.2998 74.0699 61.0796 76.1508C60.7708 79.056 60.0806 81.9122 59.5187 84.7812C59.3881 85.3985 59.2903 86.0229 59.2256 86.6515C59.0804 88.3348 59.3697 90.0343 59.2153 91.7159C59.0418 93.6642 58.2597 95.5653 58.4487 97.5136C58.5525 98.5923 58.9482 99.6127 59.2153 100.659C59.4823 101.704 59.6141 102.853 59.2066 103.849C57.782 103.301 56.2516 103.124 54.7472 103.333C53.0944 101.563 52.8012 99.0932 52.6885 96.6146C52.5758 94.136 52.8481 91.6539 52.5532 89.199C52.4664 88.4728 52.3311 87.7652 52.3087 87.04C52.2359 84.7176 53.3025 82.544 53.8333 80.287C54.311 78.2552 54.3566 76.1383 53.967 74.086C53.7068 72.7297 53.2594 71.4138 53.0998 70.0386C52.8829 68.1121 53.2506 66.1716 53.62 64.268C53.869 62.9843 54.1143 61.7006 54.3953 60.424C54.697 59.0532 55.056 57.6532 55.8626 56.5309C57.153 54.7351 59.4442 53.938 61.5863 54.1122C63.7285 54.2865 65.7281 55.3071 67.4972 56.578C68.8915 57.5533 70.1762 58.6902 71.3269 59.9671L71.3265 59.9699Z" fill="#6660BF"/>
<path d="M65.5727 27.6449C65.4754 27.8085 65.4078 27.9894 65.3733 28.1787C65.3299 28.5508 65.5467 28.8924 65.7202 29.2174C65.9424 29.6349 66.1132 30.0801 66.2284 30.5426C66.311 30.8289 66.3363 31.1298 66.3029 31.4268C66.2606 31.6499 66.1844 31.8644 66.0774 32.0623C65.7426 32.7377 65.2473 33.3623 64.5718 33.6438C64.0494 33.8453 63.4796 33.8695 62.9432 33.7129C62.4105 33.5551 61.9068 33.3046 61.4533 32.9721C61.0711 32.7185 60.7274 32.4063 60.4335 32.046C60.153 31.652 59.9168 31.2254 59.7294 30.7748C59.3688 29.9849 59.0031 29.1407 59.0687 28.2745C59.0721 28.196 59.0861 28.1184 59.1102 28.044C59.1665 27.9095 59.2452 27.7865 59.3426 27.6808C60.0826 26.7627 60.462 25.5848 60.4041 24.3851L62.9312 24.9862C63.488 25.1187 64.0447 25.2512 64.5944 25.4166C65.0454 25.5528 65.7391 25.7425 66.0323 26.1628C66.3255 26.5832 65.7713 27.2606 65.5727 27.6449Z" fill="#FFBE9D"/>
<path d="M64.2187 27.1949C66.7552 27.1949 68.8115 25.0422 68.8115 22.3867C68.8115 19.7312 66.7552 17.5786 64.2187 17.5786C61.6822 17.5786 59.626 19.7312 59.626 22.3867C59.626 25.0422 61.6822 27.1949 64.2187 27.1949Z" fill="#FFBE9D"/>
<path d="M63.4786 32.087C63.6728 31.642 64.0926 31.3607 64.4759 31.0811C64.8592 30.8015 65.2477 30.4437 65.3224 29.959C65.327 29.8493 65.3529 29.7418 65.3987 29.6431C65.5461 29.4107 65.8968 29.5269 66.1064 29.6976C66.6162 30.1135 66.9632 30.7035 67.3014 31.2792C67.739 31.9792 68.1135 32.7201 68.4202 33.4926C68.9076 34.838 68.9666 36.307 69.0203 37.7433C69.0689 39.0507 69.1158 40.3781 68.8128 41.6453C68.6221 42.4478 68.2925 43.2269 68.2732 44.0531C68.216 47.0546 67.2205 49.9236 67.151 52.9249C67.1457 53.7928 67.1872 54.6603 67.2755 55.5233L67.4386 57.4716C64.9167 57.3202 62.4019 57.0885 59.894 56.7764C59.7889 55.883 59.6078 55.0012 59.3528 54.1416C58.4366 50.5931 57.8494 46.9605 57.5993 43.294C57.4656 41.3475 57.3295 39.4083 57.122 37.4689C56.9364 35.7057 56.5723 33.9316 56.7899 32.1723C56.9043 31.3726 57.1446 30.5982 57.5011 29.8808C57.6138 29.595 57.8076 29.3524 58.0562 29.1856C58.1804 29.1227 58.3123 29.0781 58.4482 29.0531C58.8414 28.9697 59.2405 28.9205 59.6414 28.906C59.7391 28.8975 59.8375 28.9073 59.9319 28.9351C60.1009 29.0232 60.2397 29.164 60.3291 29.3381C61.1019 30.5544 62.1955 31.5095 63.4771 32.0872L63.4786 32.087Z" fill="#F2F2F2"/>
<path d="M61.3501 31.7019C61.6728 32.1848 62.3561 32.2993 62.6543 32.7914C62.7548 32.997 62.8311 33.2147 62.8816 33.4396C63.0638 34.0479 63.4315 34.5763 63.6552 35.17C63.9779 36.0234 63.9872 36.9678 63.9899 37.8857C64.0216 38.6161 63.968 39.3479 63.8303 40.0647C63.7266 40.5131 63.5562 40.94 63.4315 41.383C63.2194 42.1365 63.1406 42.9243 63.1991 43.7075C63.199 43.8766 63.242 44.0426 63.3236 44.1885C63.4412 44.3344 63.5948 44.4438 63.7677 44.5046C64.2759 44.7388 64.8083 44.9785 65.3632 44.9241C65.4771 44.9204 65.5875 44.8819 65.6807 44.8134C65.745 44.752 65.798 44.6787 65.8368 44.5972L66.1838 43.9835C66.4977 43.4223 66.8254 42.794 66.704 42.1531C66.6157 41.8223 66.4829 41.5062 66.3097 41.2144C66.088 40.7407 65.899 40.251 65.7442 39.749C65.191 38.084 64.6307 36.3953 64.5058 34.6376C64.4321 33.9687 64.5031 33.291 64.7133 32.6547C64.8762 32.2631 65.081 31.8922 65.3238 31.5489C65.2689 31.4717 65.1929 31.4139 65.1058 31.3831C65.0187 31.3523 64.9247 31.35 64.8364 31.3764C64.6619 31.4328 64.4929 31.5064 64.3317 31.5961C63.8218 31.8211 63.2563 31.7394 62.7413 31.5852C62.54 31.5235 62.221 31.3128 62.0129 31.3273C61.9432 31.3351 61.3621 31.7238 61.3501 31.7019Z" fill="#6C63FF"/>
<path d="M65.4107 31.682C65.3069 31.5951 65.1453 31.5149 65.0533 31.6168C65.0224 31.6609 65 31.7109 64.9873 31.7639C64.8971 32.0181 64.6319 32.1434 64.3907 32.2418C64.1496 32.3403 63.8896 32.3939 63.7437 32.2073C63.6977 32.1345 63.6751 32.0482 63.6792 31.961C63.6832 31.8738 63.7138 31.7902 63.7663 31.7224C63.873 31.5879 64.0016 31.4742 64.1461 31.3865C64.9439 30.797 65.4873 29.9018 65.6585 28.8953C65.8824 29.0814 66.0306 29.3494 66.0735 29.6453C66.1308 29.934 66.1376 30.2318 66.1949 30.5206C66.28 30.9347 66.469 31.3214 66.5124 31.7409C66.5236 31.9646 66.5236 32.1889 66.5124 32.4126C66.5202 32.631 66.5445 32.8483 66.5852 33.0626C66.1789 32.6116 65.8927 32.0833 65.4107 31.682Z" fill="#F2F2F2"/>
<path d="M61.9 30.4492C61.7265 30.2767 61.5531 30.1133 61.3798 29.9371C60.6187 29.1594 60.044 28.2043 59.7026 27.1498C59.4806 27.3314 59.2361 27.571 59.231 27.876C59.2506 28.0918 59.3299 28.2969 59.4592 28.4661C60.1151 29.5474 60.548 30.7602 60.7305 32.0268C60.8242 31.8736 60.954 31.7482 61.1074 31.6626C61.2608 31.5771 61.4326 31.5343 61.6064 31.5385C61.8805 31.5385 63.11 32.301 63.1987 32.1085C63.3292 31.8072 62.1082 30.6542 61.9 30.4492Z" fill="#F2F2F2"/>
<path d="M65.7732 29.0046C67.4047 30.705 69.4019 31.9709 71.5973 32.6962C71.8155 32.746 72.0179 32.8536 72.1852 33.0086C72.3102 33.172 72.3943 33.3654 72.4299 33.5715C72.853 35.3038 72.9953 37.0959 73.1354 38.8771C73.1722 39.1718 73.1663 39.4705 73.118 39.7633C73.0157 40.2391 72.693 40.6241 72.3757 40.9817C71.3796 42.0983 70.2441 43.2658 70.0758 44.7835C70.063 45.0762 70.03 45.3675 69.977 45.6551C69.8903 45.993 69.6977 46.2906 69.5798 46.6193C69.0005 48.2372 70.3101 50.1963 69.5122 51.703C69.9441 52.5716 70.2403 53.5071 70.3898 54.4738C70.4165 54.8403 70.4967 55.2004 70.6274 55.5416C70.865 56.0608 71.3537 56.3914 71.7392 56.8127C72.9134 58.0727 73.0574 60.0013 73.1267 61.7608C73.1701 62.7523 73.1562 63.8898 72.433 64.5416C72.015 64.9211 71.4444 65.0445 70.8974 65.139C70.1711 65.2661 69.3798 65.3563 68.7363 64.9811C68.275 64.7123 67.961 64.2424 67.6609 63.7882C67.0921 62.922 66.5215 62.0578 65.9819 61.1699C65.1286 59.7699 64.3239 58.1703 64.5708 56.5287C64.5015 58.2083 64.1633 59.9007 63.3757 61.3643C62.5882 62.8279 61.3213 64.0499 59.782 64.5329C58.2426 65.0158 56.4449 64.6745 55.2984 63.4979C54.9241 63.0945 54.6028 62.6408 54.3428 62.1488C53.6904 60.9787 53.2144 59.7102 52.9317 58.3882C52.8572 58.0449 52.8016 57.6619 52.9663 57.3549C53.0443 57.2096 53.1641 57.0942 53.2456 56.9519C53.5198 56.4636 53.256 55.8479 52.9906 55.3504C52.5866 55.3903 52.2969 54.8928 52.3332 54.4679C52.3695 54.043 52.6125 53.6745 52.7841 53.2876C53.2871 52.1472 53.1761 50.8198 52.9333 49.5906C52.6905 48.3614 52.328 47.1394 52.3558 45.8846C52.3853 44.5572 51.473 43.3625 50.7774 42.253C50.389 41.6284 49.9362 41.0473 49.5981 40.3918C48.8929 39.0124 48.7299 37.3992 49.1437 35.8958C49.3865 35.1238 49.705 34.3802 50.0941 33.6768L50.6664 32.5528C50.773 32.2842 50.9384 32.0456 51.1494 31.8564C51.3603 31.6671 51.6108 31.5324 51.8806 31.4633L55.8404 29.828C56.3467 29.6469 56.8274 29.3953 57.2696 29.0798C57.7535 28.6985 58.1142 28.1719 58.5757 27.7652C58.6429 27.6913 58.7235 27.6322 58.8129 27.5913C58.9022 27.5505 58.9985 27.5287 59.0959 27.5273C59.4672 27.5619 59.5989 28.052 59.6371 28.4352C59.7239 29.2923 60.3309 30.0186 60.5373 30.8521C61.6544 35.4552 64.0184 39.7005 64.6669 44.3997C65.3953 42.5676 66.1239 40.7318 67.0569 39.0068C67.204 38.7594 67.3277 38.4974 67.4262 38.2247C67.5382 37.8312 67.5799 37.4195 67.5493 37.0101C67.5024 35.828 67.2023 34.6731 66.906 33.5311C66.5206 31.976 66.1747 30.5434 65.7732 29.0046Z" fill="#FAE499"/>
<path d="M73.3197 43.0685C73.396 43.8421 73.4705 44.6173 73.6075 45.3818C73.7671 46.266 74.0099 47.1304 74.2508 47.9946C74.3685 48.4805 74.5372 48.9512 74.7538 49.3983C74.8323 49.5281 74.8946 49.6678 74.9393 49.8141C75.0244 50.1773 74.83 50.5404 74.7467 50.9036C74.4977 51.9931 75.2462 53.2043 74.7745 54.2084C74.6324 54.5126 74.3842 54.7659 74.2906 55.0926C74.1813 55.4685 74.2906 55.8697 74.3479 56.2584C74.4952 57.3479 74.1404 58.4554 73.7895 59.5032L73.1929 61.2719C72.6483 60.2115 72.0984 59.1402 71.346 58.2304C71.0762 57.9045 70.784 57.6003 70.5367 57.2554C70.1668 56.7132 69.8747 56.1173 69.6695 55.4867C69.1399 53.9882 68.8373 52.4122 68.7728 50.8158C68.7297 50.3621 68.7799 49.9039 68.9201 49.4721C69.0349 49.2224 69.1634 48.9799 69.3051 48.7459C69.7699 47.8688 69.8653 46.8302 69.8566 45.828C69.8479 44.8258 69.7456 43.8197 69.8566 42.8228C69.9472 41.9905 70.1823 41.1825 70.5504 40.4387C70.7675 39.957 71.0901 39.5359 71.4921 39.2095C71.7921 38.9743 72.158 38.8498 72.5328 38.8553C73.0999 38.8899 72.9698 39.4 73.0183 39.8921L73.3197 43.0685Z" fill="#FAE499"/>
<path d="M47.8078 40.5975C47.4539 41.6869 47.1348 42.7861 46.8503 43.8949C46.5728 44.9844 46.3248 46.0799 46.1062 47.1815C45.9942 47.6656 45.9316 48.1608 45.9194 48.6588C45.9416 49.2389 46.0366 49.8134 46.2021 50.3675C47.3191 54.5821 49.3553 58.4696 51.6481 62.1246C52.3033 61.2691 53.0815 60.5254 53.9549 59.9202C54.0263 59.8759 54.086 59.8134 54.1283 59.7385C54.1503 59.6679 54.1568 59.593 54.1472 59.5194C54.1376 59.4458 54.1122 59.3755 54.0729 59.3136C53.4398 57.9554 52.4373 56.7587 52.1223 55.2825C51.9905 54.6688 51.9853 54.0296 51.8361 53.4196C51.6435 52.6297 51.2136 51.9071 51.1146 51.0972C51.0088 50.2147 51.2881 49.2523 50.8925 48.4698C51.6992 48.1411 52.1657 47.2714 52.5072 46.4378C52.8723 45.5851 53.1333 44.6877 53.2842 43.7667C53.5216 42.0011 53.1915 40.2029 52.3458 38.6553C51.9327 37.8832 51.4026 37.1866 50.7761 36.5925C50.5697 36.3983 50.0824 35.8408 49.7823 35.8462C49.3816 35.8554 49.2534 36.5345 49.139 36.8395C48.675 38.0861 48.217 39.3335 47.8078 40.5975Z" fill="#FAE499"/>
<path d="M54.9915 60.9214C55.0436 60.9614 55.1025 61.0159 55.0886 61.0813C55.0747 61.1467 55.0245 61.163 54.9793 61.19C54.7448 61.3641 54.5698 61.6123 54.4798 61.8982C54.1916 62.578 53.9403 63.2743 53.7271 63.9838C53.339 63.375 52.8824 62.8172 52.3673 62.3223C51.9718 61.941 51.5295 61.5797 51.3179 61.064C51.3179 61.0494 52.2268 60.347 52.31 60.2706C52.565 60.0327 52.8859 59.3735 53.1494 59.2278C53.4478 59.0644 53.7321 59.7057 53.9587 59.9632C54.2713 60.3171 54.6171 60.6373 54.9907 60.9191L54.9915 60.9214Z" fill="#FFBE9D"/>
<path d="M69.0964 21.635C69.1042 21.5163 69.0892 21.3971 69.0523 21.2845C69.0154 21.172 68.9573 21.0683 68.8814 20.9796C68.7292 20.8693 68.5459 20.8162 68.3612 20.8288C67.3499 20.7943 66.3041 20.9722 65.3501 20.6164C64.7222 20.3822 64.1864 19.9318 63.574 19.6522C62.9616 19.3726 62.1778 19.2981 61.6835 19.7684C61.3089 20.1317 61.2062 20.6891 61.0765 21.2023C60.7901 22.3364 60.2803 23.3953 59.5797 24.3109C59.1097 24.1588 58.7731 23.7189 58.5565 23.2577C57.8194 21.6852 58.1819 19.8078 58.7057 18.1408C58.8791 17.5816 59.0717 17.0278 59.2641 16.4758L59.6872 15.2555C60.2426 15.1984 60.7587 14.9295 61.1371 14.5001L61.3193 14.9631C61.7897 14.9454 62.2437 14.7775 62.6202 14.4819C62.7655 14.7688 63.1405 14.8451 63.4441 14.7523C63.7477 14.6596 64.0096 14.4819 64.3113 14.3891C65.1177 14.1167 65.9781 14.5362 66.8245 14.5833C67.1827 14.5742 67.5411 14.585 67.8982 14.6159C68.8972 14.7847 69.6032 15.7688 69.9084 16.7784C70.1114 17.4501 70.2797 18.2774 70.9126 18.5142C70.9265 18.7684 70.4963 18.8184 70.46 19.0589C70.4557 19.1394 70.4738 19.2194 70.5121 19.2894L71.0931 20.5948C70.8154 20.6679 70.5232 20.6527 70.2537 20.5514C69.9914 21.1971 69.1225 22.1271 69.0964 21.635Z" fill="#192534"/>
<path d="M98.5399 24.477C98.8343 25.4726 99.066 26.4874 99.2336 27.5148C99.3582 28.2847 99.4314 29.1398 99.0099 29.7826C100.616 27.2532 102.293 24.6475 104.734 23.0153C104.237 22.4512 103.859 21.784 103.624 21.057C103.39 20.33 103.304 19.5594 103.372 18.7954C103.386 18.6433 101.369 19.44 101.214 19.5308C100.506 19.9436 99.8576 20.455 99.1674 20.8962C98.8101 21.1233 97.322 21.6607 97.3081 21.9857C97.3081 22.1945 97.8995 22.833 98.0105 23.0535C98.2283 23.51 98.4054 23.9866 98.5395 24.4772L98.5399 24.477Z" fill="#FFBE9D"/>
<path d="M106.003 119.875C105.606 119.582 105.141 119.408 104.658 119.37C104.174 119.331 103.69 119.431 103.256 119.657C102.47 120.082 101.941 120.887 101.226 121.432C99.9982 122.366 98.3767 122.439 96.9388 122.944C96.5572 123.078 96.1515 123.278 95.99 123.67C95.936 123.835 95.9144 124.01 95.9267 124.184C95.9389 124.357 95.9847 124.527 96.0612 124.682C96.3016 125.243 96.7228 125.697 97.2511 125.965C97.8963 126.289 98.6386 126.303 99.3532 126.313L105.563 126.389C107.47 126.413 109.39 126.436 111.286 126.685C111.728 126.743 112.207 126.807 112.598 126.58C113.232 126.216 113.305 125.298 113.257 124.541C113.129 122.622 112.719 120.736 112.042 118.948C111.968 118.75 111.869 118.525 111.659 118.488C111.51 118.481 111.364 118.53 111.246 118.626C109.495 119.716 107.276 120.331 105.414 119.46" fill="black"/>
<path d="M109.112 78.4025C108.418 82.6207 108.87 86.9548 109.651 91.1551C109.795 91.9913 109.984 92.8182 110.218 93.6318C110.498 94.5579 110.874 95.4476 111.136 96.3791C111.802 98.7395 111.708 101.264 111.609 103.728L111.155 114.94C111.117 115.881 111.082 116.843 111.353 117.74C111.462 118.103 111.596 118.557 111.32 118.802C111.212 118.883 111.086 118.934 110.954 118.949C109.713 119.189 108.431 118.987 107.311 118.377L107.188 107.05C107.15 103.559 107.11 100.052 106.597 96.6042C106.189 93.8623 105.481 91.1569 105.435 88.3823C105.386 85.4771 106.066 82.61 106.76 79.7936C106.909 79.1907 107.454 78.7495 107.901 78.341C108.057 78.1799 108.247 78.0592 108.456 77.9889C108.664 77.9283 108.983 78.2187 109.112 78.4025Z" fill="#3F3D56"/>
<path d="M109.112 78.4025C108.418 82.6207 108.87 86.9548 109.651 91.1551C109.795 91.9913 109.984 92.8182 110.218 93.6318C110.498 94.5579 110.874 95.4476 111.136 96.3791C111.802 98.7395 111.708 101.264 111.609 103.728L111.155 114.94C111.117 115.881 111.082 116.843 111.353 117.74C111.462 118.103 111.596 118.557 111.32 118.802C111.212 118.883 111.086 118.934 110.954 118.949C109.713 119.189 108.431 118.987 107.311 118.377L107.188 107.05C107.15 103.559 107.11 100.052 106.597 96.6042C106.189 93.8623 105.481 91.1569 105.435 88.3823C105.386 85.4771 106.066 82.61 106.76 79.7936C106.909 79.1907 107.454 78.7495 107.901 78.341C108.057 78.1799 108.247 78.0592 108.456 77.9889C108.664 77.9283 108.983 78.2187 109.112 78.4025Z" fill="#6660BF"/>
<path d="M96.0878 65.2196C95.8311 66.3254 96.3756 67.4711 96.315 68.6087C96.2803 69.2969 96.022 69.9832 96.1415 70.6586C96.261 71.3341 96.7226 71.8424 96.9689 72.4618C97.1485 72.9789 97.2435 73.5241 97.2498 74.0743C97.321 75.4325 97.2637 76.7979 97.2152 78.1507C97.1336 80.4206 97.073 82.703 97.3592 84.9526C97.6084 86.9017 98.1144 88.8052 98.8629 90.6087C99.0897 91.0993 99.2772 91.6089 99.4232 92.1321C99.5189 92.6194 99.5827 93.113 99.6139 93.6094C99.7787 95.2248 100.193 96.8014 100.84 98.2779C101.282 99.2892 102.054 100.094 102.299 101.167C102.531 102.195 102.375 103.279 102.543 104.32C102.666 105.091 102.966 105.821 103.133 106.584C103.35 107.57 103.345 108.592 103.454 109.598C103.765 112.503 105.027 115.409 104.274 118.226C104.123 118.793 103.889 119.369 103.995 119.946C104.047 120.228 104.179 120.509 104.119 120.79C104.071 121.029 103.894 121.215 103.804 121.442C103.63 121.867 103.814 122.372 104.123 122.701C104.452 123.007 104.835 123.244 105.25 123.398C106.529 123.97 107.852 124.551 109.239 124.538C109.408 124.547 109.576 124.515 109.73 124.444C109.963 124.274 110.133 124.025 110.209 123.739L110.92 121.898C111.007 121.674 111.093 121.413 110.974 121.206C110.89 121.092 110.789 120.994 110.675 120.915C110.101 120.409 110.231 119.463 110.385 118.702C110.775 116.748 110.991 114.76 111.03 112.764C111.106 108.784 110.48 104.828 109.856 100.9C109.639 99.5364 109.42 98.1627 108.989 96.8564C108.557 95.5501 107.92 94.2907 108.024 92.9324C108.135 91.4654 107.771 89.9272 108.024 88.4801C108.277 87.033 108.678 85.6165 108.937 84.1712C109.272 82.2954 109.355 80.3834 109.458 78.4805C109.501 77.7034 109.556 76.9009 109.903 76.2107C110.106 75.8077 110.401 75.4625 110.628 75.0721C111.215 74.0571 111.308 72.7988 111.869 71.7673C112.134 71.2789 112.5 70.8485 112.694 70.3256C112.83 69.9132 112.902 69.4803 112.906 69.0438C112.961 67.948 112.902 66.8491 112.732 65.7664C109.78 64.1935 106.505 63.3982 103.193 63.4494C101.925 63.4711 100.643 63.6056 99.4535 64.0649C98.3181 64.5059 97.2841 65.1251 96.0878 65.2196Z" fill="#6660BF"/>
<path d="M103.198 122.747C102.688 123.412 102.723 124.361 102.397 125.144C102.001 126.094 101.12 126.702 100.284 127.256L95.0811 130.706C94.7966 130.887 94.4914 131.111 94.3874 131.449C94.338 131.664 94.347 131.89 94.4134 132.1C94.5376 132.556 94.7691 132.972 95.0866 133.309C95.4042 133.647 95.7977 133.895 96.231 134.032C96.6914 134.147 97.1644 134.198 97.6375 134.183L99.9773 134.216C100.69 134.245 101.404 134.216 102.112 134.129C102.761 134.031 103.392 133.836 104.038 133.713C105.212 133.49 106.419 133.51 107.595 133.294C108.315 133.145 109.026 132.953 109.725 132.718C110.576 132.451 111.44 132.173 112.169 131.645C112.369 131.517 112.532 131.334 112.639 131.115C112.73 130.801 112.725 130.465 112.625 130.154L111.508 125.016C111.445 124.588 111.296 124.179 111.071 123.815C110.822 123.47 110.377 123.242 109.99 123.389C109.831 123.464 109.68 123.559 109.541 123.671C108.944 124.04 108.236 124.16 107.558 124.007C107.121 123.925 106.544 123.8 106.192 123.497C105.925 123.266 105.845 122.908 105.618 122.647C105.458 122.476 105.266 122.341 105.054 122.253C104.842 122.164 104.615 122.123 104.387 122.133C104.158 122.142 103.935 122.202 103.73 122.307C103.525 122.413 103.344 122.563 103.198 122.747V122.747Z" fill="black"/>
<path d="M99.8252 23.7689C103.286 23.7689 106.092 20.8317 106.092 17.2084C106.092 13.5851 103.286 10.6479 99.8252 10.6479C96.3642 10.6479 93.5586 13.5851 93.5586 17.2084C93.5586 20.8317 96.3642 23.7689 99.8252 23.7689Z" fill="#FFBE9D"/>
<path d="M94.9919 17.5931C95.592 17.2409 95.592 16.2257 96.2061 15.8881C96.8201 15.5505 97.5174 16.1369 97.911 16.7289C98.4842 17.5959 98.882 18.5766 99.0799 19.6105C99.1356 19.9046 99.1874 20.226 99.3991 20.4313C99.6175 20.6045 99.8849 20.6962 100.159 20.692C100.951 20.7742 101.744 20.8492 102.538 20.917C103.423 20.9915 104.356 21.0513 105.159 20.6537C105.476 20.5054 105.748 20.2693 105.947 19.9709C106.106 19.6844 106.219 19.3729 106.283 19.0485C106.698 17.3974 107.116 15.7274 107.15 14.0206C107.164 13.3161 107.105 12.5868 106.781 11.9687C106.592 11.6055 106.314 11.2896 106.236 10.8901C106.158 10.4905 106.41 9.98217 106.805 10.0258C106.448 10.0412 106.092 9.97038 105.765 9.8188C105.451 9.63718 105.218 9.24678 105.329 8.89092C104.448 9.00889 103.806 8.09752 103.119 7.50726C103.008 7.39129 102.857 7.32604 102.699 7.32563C102.579 7.35718 102.462 7.40417 102.352 7.46554C102.005 7.59263 101.643 7.35105 101.288 7.2459C100.333 6.9663 99.1212 7.64173 98.4136 6.91547C98.4813 7.37843 97.9384 7.68909 97.4908 7.67997C97.0432 7.67085 96.5819 7.49835 96.1587 7.65455C96.22 7.7719 96.2558 7.90198 96.2635 8.03549C96.2712 8.169 96.2506 8.30263 96.2032 8.42684C96.1558 8.55105 96.0828 8.66276 95.9894 8.75399C95.896 8.84522 95.7844 8.91372 95.6628 8.95458L95.8726 9.43405C95.6564 9.4793 95.4565 9.58692 95.2956 9.74477C95.1347 9.90262 95.0192 10.1044 94.962 10.3274C94.7312 11.2807 94.7885 12.6352 94.8441 13.6157C94.873 14.0445 95.2735 17.4315 94.9919 17.5931Z" fill="#192534"/>
<path d="M100.339 25.6656C97.1906 29.3716 96.3894 34.5882 95.7181 39.5001L94.7295 46.7523C94.4728 48.6335 94.209 50.5146 93.9853 52.4008C93.8293 53.6919 93.6836 55.0028 93.8535 56.292C93.9872 57.3087 94.3115 58.2894 94.5819 59.2683C95.286 61.8353 95.6364 64.4944 95.6226 67.1651C95.8324 66.5188 96.5591 66.2573 97.1975 66.1119C102.553 64.8955 108.141 65.5202 113.13 67.8934C114.006 65.324 113.841 62.5132 114.086 59.7967C114.432 55.9235 115.627 52.1712 115.981 48.3041C116.111 46.8642 116.126 45.4171 116.141 43.9698C116.151 42.9076 116.161 41.8344 115.95 40.794C115.714 39.6426 115.216 38.5696 114.701 37.5257C113.277 34.6232 111.695 31.8088 109.963 29.0964C109.091 27.7309 108.182 26.3926 107.235 25.0816C106.755 24.4169 106.265 23.7596 105.766 23.1096C105.282 22.4796 105.072 21.933 104.303 22.3106C102.851 23.0225 101.395 24.4207 100.339 25.6656Z" fill="#FAE499"/>
<path d="M102.143 56.511C101.375 56.5401 100.606 56.5146 99.8412 56.4347C99.2741 56.3767 98.6947 56.2894 98.1415 56.4347C97.9009 56.4982 97.6758 56.6139 97.4807 56.7743C97.4086 56.8417 97.3567 56.9297 97.3315 57.0275C97.3063 57.1252 97.3089 57.2286 97.3388 57.3249C97.3688 57.4212 97.4249 57.5062 97.5003 57.5697C97.5757 57.6331 97.6671 57.6722 97.7634 57.6822L98.3567 57.7367C98.7331 57.7713 99.1245 57.8112 99.4181 58.1C99.5384 58.2134 99.6149 58.369 99.6331 58.5375C99.6696 58.9605 99.3191 59.1912 99.0051 59.3674C98.5589 59.5868 98.1463 59.8744 97.7808 60.2208C97.4946 60.5103 97.3147 60.8959 97.2726 61.3103C97.2713 61.3472 97.2793 61.3838 97.2958 61.4165C97.3123 61.4491 97.3367 61.4767 97.3666 61.4964C97.3964 61.516 97.4307 61.5271 97.466 61.5286C97.5012 61.53 97.5362 61.5217 97.5675 61.5045C98.2612 61.1412 98.714 60.0646 99.4754 60.2444C98.7828 60.474 98.1896 60.9517 97.7999 61.5936C97.7036 61.7468 97.6597 61.9296 97.6751 62.1123C97.6906 62.295 97.7646 62.4669 97.8852 62.6C98.0057 62.7332 98.1657 62.8197 98.3391 62.8457C98.5125 62.8716 98.6893 62.8355 98.8406 62.743C98.9533 62.6739 99.0621 62.5981 99.1666 62.516C99.6825 62.0788 100.144 61.5762 100.542 61.0198C99.9869 62.2455 99.425 63.68 100.063 64.8984C100.095 64.9654 100.145 65.0213 100.206 65.0593C100.268 65.0974 100.339 65.1159 100.41 65.1126C100.612 65.0909 100.67 64.8929 100.703 64.7185C100.807 64.1573 100.834 63.5655 101.098 63.0661C101.708 61.9077 103.214 61.7949 104.36 61.2303C105.736 60.5621 106.677 59.123 107.058 57.5879C107.191 57.1399 107.214 56.6641 107.125 56.2042C106.87 55.171 105.652 54.9331 104.871 55.4326C103.91 56.0698 103.353 56.471 102.143 56.511Z" fill="#FFBE9D"/>
<path d="M100.925 36.1869C102.139 38.1497 104.246 39.2555 106.054 40.6338C106.495 40.9345 106.879 41.3174 107.188 41.7635C107.644 42.5006 107.708 43.4376 107.615 44.3053C107.497 45.4511 107.145 46.5532 106.796 47.6464L106.038 50.016C105.558 51.5193 105.061 53.0538 104.148 54.3175C103.914 54.6388 103.641 54.9821 103.652 55.3853C103.672 55.6182 103.748 55.8418 103.874 56.0353C104.166 56.535 104.552 56.968 105.007 57.3087C105.463 57.6493 105.979 57.8906 106.526 58.0181C106.853 58.1053 107.196 58.1053 107.523 58.0181C107.991 57.8728 108.343 57.4735 108.669 57.0957C110.23 55.2925 111.791 53.4641 112.919 51.3488C114.02 49.2849 114.679 46.991 115.286 44.7194C115.536 43.8831 115.71 43.0241 115.806 42.1537C115.935 40.5195 115.525 38.8854 114.856 37.4089C114.187 35.9325 113.266 34.5962 112.317 33.2979C111.421 32.0226 110.427 30.8273 109.342 29.7243C107.455 27.8777 105.147 26.7915 102.622 27.8395C100.839 28.5803 100.171 30.1256 100.011 32.1048C99.8759 33.5338 100.197 34.9695 100.925 36.1869V36.1869Z" fill="#FAE499"/>
<path d="M101.556 35.6893C102.77 37.6522 104.879 38.758 106.685 40.1362C107.124 40.4398 107.507 40.825 107.814 41.2729C108.27 42.01 108.334 42.9457 108.241 43.8147C108.121 44.9605 107.77 46.0626 107.42 47.1558L106.662 49.5175C106.182 51.0211 105.686 52.5536 104.772 53.8191C104.539 54.1404 104.267 54.4819 104.277 54.8869C104.296 55.1195 104.373 55.3429 104.499 55.5351C104.792 56.0351 105.177 56.4684 105.632 56.8093C106.087 57.1502 106.603 57.3918 107.15 57.5197C107.477 57.6069 107.821 57.6069 108.149 57.5197C108.617 57.3763 108.967 56.9751 109.295 56.599C110.856 54.7941 112.417 52.9675 113.544 50.8521C114.646 48.7882 115.305 46.4943 115.912 44.2208C116.163 43.3854 116.337 42.527 116.432 41.6572C116.56 40.023 116.151 38.3889 115.483 36.9107C114.816 35.4325 113.893 34.098 112.944 32.7997C112.046 31.5311 111.048 30.3425 109.963 29.2461C108.077 27.4012 105.769 26.3132 103.244 27.3632C101.459 28.104 100.793 29.6474 100.632 31.6285C100.504 33.0523 100.829 34.4803 101.556 35.6911V35.6893Z" fill="#FAE499"/>
</svg>
