<?xml version="1.0" standalone="no"?>
<!DOCTYPE svg PUBLIC "-//W3C//DTD SVG 20010904//EN"
 "http://www.w3.org/TR/2001/REC-SVG-20010904/DTD/svg10.dtd">
<svg version="1.0" xmlns="http://www.w3.org/2000/svg"
 width="849.000000pt" height="265.000000pt" viewBox="0 0 849.000000 265.000000"
 preserveAspectRatio="xMidYMid meet">
<metadata>
Created by potrace 1.16, written by Peter Selinger 2001-2019
</metadata>
<g transform="translate(0.000000,265.000000) scale(0.100000,-0.100000)"
fill="#000000" stroke="none">
<path d="M840 1510 l0 -810 95 0 95 0 0 810 0 810 -95 0 -95 0 0 -810z"/>
<path d="M1130 2230 l0 -90 95 0 95 0 0 90 0 90 -95 0 -95 0 0 -90z"/>
<path d="M2560 1510 l0 -810 95 0 95 0 0 176 0 176 77 84 c42 46 79 83 83 82
3 -2 118 -119 254 -260 l249 -258 114 0 c65 0 113 4 111 9 -1 5 -126 141 -277
301 -151 161 -285 306 -299 321 l-24 29 174 183 c96 100 209 219 252 265 l79
82 -121 0 -121 0 -273 -290 -273 -291 -3 506 -2 505 -95 0 -95 0 0 -810z"/>
<path d="M5730 1510 l0 -810 100 0 100 0 0 810 0 810 -100 0 -100 0 0 -810z"/>
<path d="M7340 2030 l0 -140 -80 0 -80 0 0 -80 0 -80 80 0 79 0 3 -442 3 -443
24 -48 c15 -30 39 -58 64 -75 36 -24 52 -27 139 -30 73 -3 112 1 153 13 l55
18 0 87 0 87 -52 -18 c-60 -21 -120 -24 -150 -8 -45 24 -48 54 -48 469 l0 390
125 0 125 0 0 80 0 80 -125 0 -125 0 0 140 0 140 -95 0 -95 0 0 -140z"/>
<path d="M1913 1895 c-29 -8 -72 -24 -95 -36 -53 -27 -143 -111 -180 -168
l-28 -45 0 122 0 122 -100 0 -100 0 0 -595 0 -595 100 0 99 0 3 368 3 367 31
60 c64 122 158 201 274 231 141 36 283 -29 341 -158 24 -53 24 -56 27 -460 l3
-408 100 0 99 0 0 379 c0 420 -6 483 -59 594 -34 71 -112 152 -179 186 -97 50
-234 64 -339 36z"/>
<path d="M3852 1889 c-133 -42 -214 -143 -220 -275 -9 -179 76 -273 335 -369
69 -25 143 -55 163 -65 144 -73 155 -229 23 -307 -65 -38 -178 -44 -250 -14
-60 26 -116 81 -146 143 l-22 45 -78 -24 c-89 -27 -89 -27 -46 -118 67 -143
219 -227 409 -227 247 0 420 143 420 347 0 172 -97 265 -372 360 -133 46 -205
88 -230 135 -25 48 -23 109 5 151 75 114 275 99 354 -26 15 -24 34 -44 42 -45
33 -1 151 42 151 55 0 27 -86 141 -135 177 -100 76 -268 100 -403 57z"/>
<path d="M4950 1896 c-108 -33 -194 -86 -246 -154 l-34 -45 0 97 0 96 -100 0
-100 0 0 -810 0 -810 100 0 100 0 2 312 3 311 29 -42 c37 -53 120 -113 195
-142 78 -30 242 -38 330 -15 207 53 363 197 428 396 24 74 28 100 28 205 -1
137 -15 199 -73 310 -65 123 -190 227 -332 276 -81 27 -260 36 -330 15z m209
-171 c227 -54 364 -260 330 -500 -25 -186 -169 -333 -356 -366 -159 -28 -340
59 -416 199 -54 100 -70 240 -42 361 30 126 110 227 220 277 95 44 166 52 264
29z"/>
<path d="M6436 1895 c-205 -52 -376 -211 -437 -405 -28 -92 -35 -236 -15 -330
25 -121 83 -225 170 -307 121 -116 262 -173 426 -173 106 0 181 18 289 71 154
76 263 214 307 389 23 91 15 281 -16 367 -61 172 -211 316 -390 375 -85 27
-250 34 -334 13z m216 -166 c125 -26 244 -113 297 -217 69 -135 66 -311 -6
-444 -80 -147 -269 -239 -426 -208 -186 36 -315 171 -347 361 -33 194 65 391
234 470 98 46 163 56 248 38z"/>
<path d="M1130 1295 l0 -595 95 0 95 0 0 595 0 595 -95 0 -95 0 0 -595z"/>
</g>
</svg>
