<svg width="150" height="200" viewBox="0 0 100 150" class="css-1j8o68f" xmlns="http://www.w3.org/2000/svg">
<g id="SvgjsG2619" featurekey="RGwKHf-0" fill="#545454">
      <path d="M2.78 5.859999999999999 l0 14.14 l-1.64 0 l0 -14.14 l1.64 0 z M5.3245000000000005 5.859999999999999 l0 1.46 l-1.64 0 l0 -1.46 l1.64 0 z M5.3245000000000005 9.6 l0 10.4 l-1.64 0 l0 -10.4 l1.64 0 z M11.609 9.44 c2.02 0 3.98 1.3 3.98 4.52 l0 6.04 l-1.64 0 l0 -6 c0 -2.18 -1.14 -3.12 -2.68 -3.12 c-1.86 0 -3.14 1.72 -3.4 2.98 l0 6.14 l-1.64 0 l0 -10.4 l1.64 0 l0 2.42 c0.2 -0.72 1.46 -2.58 3.74 -2.58 z M23.7935 20 l-4.48 -4.64 l-1.42 1.5 l0 3.14 l-1.64 0 l0 -3.42 l0 -10.72 l1.64 0 l0 8.98 l4.92 -5.24 l1.98 0 l-4.44 4.66 l5.38 5.74 l-1.94 0 z M30.958 12.120000000000001 c-0.4 -0.84 -1.06 -1.36 -2.02 -1.36 c-1 0 -1.68 0.6 -1.68 1.4 c0 0.72 0.38 1.24 1.42 1.62 l1.04 0.36 c1.74 0.62 3.02 1.26 3.02 3.08 c0 1.98 -1.92 3 -3.7 3 c-1.8 0 -3.4 -1.04 -3.78 -2.78 l1.32 -0.4 c0.32 1.14 1.26 1.84 2.46 1.84 c1.04 0 2.08 -0.6 2.08 -1.64 c0 -0.9 -0.62 -1.38 -1.7 -1.76 l-1.16 -0.42 c-1.82 -0.64 -2.6 -1.66 -2.6 -2.9 c0 -1.62 1.44 -2.74 3.24 -2.74 c1.68 0 2.86 0.92 3.42 2.3 z M38.4825 9.42 c2.36 0 5.22 1.8 5.22 5.38 c0 3.62 -2.86 5.4 -5.22 5.4 c-1.84 0 -3.26 -1 -3.74 -2.2 l0 5.8 l-1.64 0 l0 -6.52 l0 -7.68 l1.64 0 l0 1.96 c0.48 -1.12 1.9 -2.14 3.74 -2.14 z M38.302499999999995 18.74 c1.76 0 3.8 -1.3 3.8 -3.94 c0 -2.62 -2.04 -3.92 -3.8 -3.92 c-1.78 0 -3.64 1.26 -3.64 3.92 c0 2.68 1.86 3.94 3.64 3.94 z M45.807 5.859999999999999 l0 14.14 l-1.64 0 l0 -14.14 l1.64 0 z M51.591499999999996 9.42 c2.36 0 5.34 1.8 5.34 5.4 s-2.98 5.38 -5.34 5.38 s-5.32 -1.78 -5.32 -5.38 s2.96 -5.4 5.32 -5.4 z M51.591499999999996 10.88 c-1.68 0 -3.72 1.3 -3.72 3.94 c0 2.62 2.04 3.92 3.72 3.92 c1.7 0 3.74 -1.3 3.74 -3.92 c0 -2.64 -2.04 -3.94 -3.74 -3.94 z M62.116 10.98 l-2.2 0 l0 6.7 c0 0.62 0.24 1 0.84 1 c0.52 0 0.9 -0.12 1.34 -0.32 l0 1.4 c-0.44 0.22 -0.96 0.36 -1.78 0.36 c-1.06 0 -2.02 -0.48 -2.02 -2.3 l0 -6.84 l-1.44 0 l0 -1.38 l1.44 0 l0 -2.44 l1.62 0 l0 2.44 l2.2 0 l0 1.38 z"></path>
   </g>
</svg>
