<svg width="155" height="138" viewBox="0 0 155 138" fill="none" xmlns="http://www.w3.org/2000/svg">
<path opacity="0.5" d="M15.8337 50.8431L9.94398 57.4455C14.8369 59.521 19.7899 56.6396 21.8202 55.1951C28.3761 58.7976 36.0583 59.767 43.3036 57.9062C50.549 56.0453 56.8132 51.494 60.8217 45.1782C64.8303 38.8624 66.282 31.2566 64.8815 23.9084C63.481 16.5601 59.3335 10.0215 53.2829 5.62284C47.2323 1.22419 39.7332 -0.704009 32.3113 0.230555C24.8894 1.16512 18.1023 4.89223 13.3311 10.6536C8.55982 16.4149 6.16279 23.7776 6.62771 31.2437C7.09263 38.7097 10.3846 45.7182 15.8337 50.8431V50.8431Z" fill="#3D71F5"/>
<path d="M20.1154 24.5924C26.1918 24.5292 32.2672 24.4205 38.3431 24.3381C40.3686 24.3105 42.3942 24.2867 44.4199 24.2667C46.1654 24.2487 46.1696 21.5344 44.4199 21.5527C38.3435 21.6159 32.2681 21.7246 26.1922 21.8071C24.1667 21.8347 22.1411 21.8584 20.1154 21.8784C18.3699 21.8965 18.3656 24.6107 20.1154 24.5924Z" fill="white"/>
<path d="M20.1155 30.9251L44.6739 30.6708L51.6582 30.5994C53.4036 30.5814 53.4079 27.8673 51.6582 27.8854L27.0991 28.1388L20.1148 28.2102C18.37 28.2292 18.3657 30.9432 20.1155 30.9251Z" fill="white"/>
<path d="M20.1155 37.258L44.6739 37.0036L51.6582 36.9322C53.4036 36.9142 53.4079 34.2002 51.6582 34.2182L27.0991 34.4721L20.1148 34.5435C18.37 34.562 18.3657 37.276 20.1155 37.258Z" fill="white"/>
<path d="M2.13965 63.1555C3.32134 63.1555 4.27929 62.1976 4.27929 61.0159C4.27929 59.8342 3.32134 58.8762 2.13965 58.8762C0.957952 58.8762 0 59.8342 0 61.0159C0 62.1976 0.957952 63.1555 2.13965 63.1555Z" fill="#E6E6E6"/>
<path d="M108.478 73.9249L107.282 81.3899C107.207 81.8577 107.03 82.3034 106.764 82.6956C106.498 83.0877 106.149 83.4167 105.742 83.6593C105.335 83.9019 104.88 84.0522 104.409 84.0996C103.937 84.147 103.461 84.0904 103.014 83.9337V83.9337C102.569 83.7777 102.164 83.5265 101.827 83.1977C101.489 82.8689 101.228 82.4704 101.06 82.03C100.893 81.5896 100.823 81.1179 100.857 80.6479C100.891 80.178 101.026 79.721 101.255 79.3089L105.147 72.2897L120.191 42.2395C120.783 41.2405 121.689 40.4655 122.768 40.0354C123.847 39.6054 125.038 39.5444 126.155 39.8622L127.748 40.3153L125.378 47.2665L108.478 73.9249Z" fill="#FFBE9D"/>
<path d="M149.995 126.409L153.517 126.223L149.625 113.249L144.064 114.361L149.995 126.409Z" fill="#FFBE9D"/>
<path d="M114.778 128.818H118.67L120.709 116.214H114.778V128.818Z" fill="#FFBE9D"/>
<path d="M120.948 22.3489C120.918 25.1346 121.997 27.8179 123.946 29.8086C125.894 31.7993 128.554 32.9343 131.34 32.9638C134.126 32.9933 136.809 31.9151 138.8 29.9661C140.79 28.0172 141.925 25.3574 141.955 22.5717C141.958 22.4984 141.958 22.4221 141.958 22.3489C141.958 19.5629 140.851 16.891 138.881 14.9209C136.911 12.9509 134.239 11.8442 131.453 11.8442C128.667 11.8442 125.995 12.9509 124.025 14.9209C122.055 16.891 120.948 19.5629 120.948 22.3489H120.948Z" fill="#2F2E41"/>
<path d="M135.91 16.6192C138.898 16.6192 141.321 14.1963 141.321 11.2075C141.321 8.21877 138.898 5.7959 135.91 5.7959C132.921 5.7959 130.498 8.21877 130.498 11.2075C130.498 14.1963 132.921 16.6192 135.91 16.6192Z" fill="#2F2E41"/>
<path d="M135.345 15.3442C136.389 15.726 137.526 15.7766 138.6 15.4893C139.675 15.2019 140.634 14.5905 141.349 13.7383C142.063 12.8861 142.497 11.8344 142.593 10.7265C142.688 9.61854 142.44 8.50814 141.881 7.54639C142.392 8.10773 142.779 8.77024 143.017 9.49086C143.255 10.2115 143.339 10.9741 143.263 11.7292C143.186 12.4843 142.952 13.2149 142.576 13.8736C142.199 14.5323 141.687 15.1043 141.075 15.5526C140.463 16.0008 139.763 16.3152 139.021 16.4753C138.279 16.6354 137.512 16.6376 136.769 16.4818C136.027 16.326 135.325 16.0158 134.71 15.5711C134.095 15.1265 133.58 14.5574 133.2 13.9009C133.787 14.549 134.523 15.0443 135.345 15.344V15.3442Z" fill="#2F2E41"/>
<path d="M130.624 33.8802C133.976 33.8802 136.694 31.1628 136.694 27.8107C136.694 24.4587 133.976 21.7413 130.624 21.7413C127.272 21.7413 124.555 24.4587 124.555 27.8107C124.555 31.1628 127.272 33.8802 130.624 33.8802Z" fill="#FFBE9D"/>
<path d="M134.981 30.0265C134.981 30.0265 135.537 37.07 139.059 38.5527L125.343 51.1567L120.895 49.1169L124.046 40.22C124.046 40.22 131.274 38.7372 128.309 32.2498L134.981 30.0265Z" fill="#FFBE9D"/>
<path d="M111.627 117.327L121.636 117.883L126.27 83.0364L138.318 117.697L150.367 113.805L138.504 74.1395C135.449 63.1672 138.018 51.1088 142.21 38.7372L137.576 37.4396L127.011 38.9224C125.919 38.924 124.847 39.2173 123.906 39.7718C122.965 40.3263 122.189 41.122 121.658 42.0767C119.055 46.7363 117.174 51.2572 118.708 55.119C112.557 71.2179 111.23 93.2185 111.627 117.327Z" fill="#6660BF"/>
<path d="M141.283 77.1051L138.709 84.2135C138.548 84.6589 138.487 85.1344 138.529 85.6062C138.572 86.078 138.717 86.5347 138.956 86.9441C139.194 87.3535 139.519 87.7057 139.909 87.9756C140.298 88.2456 140.742 88.4269 141.209 88.5066V88.5066C141.673 88.5859 142.149 88.5628 142.604 88.439C143.059 88.3151 143.481 88.0936 143.841 87.7897C144.201 87.4858 144.49 87.107 144.689 86.6797C144.888 86.2524 144.99 85.7869 144.991 85.3157V77.2906L146.404 43.7152C146.371 42.5542 145.954 41.4368 145.219 40.5374C144.484 39.6379 143.472 39.0071 142.341 38.7432L140.727 38.3666L139.431 45.5953L141.283 77.1051Z" fill="#FFBE9D"/>
<path d="M151.255 136.711C152.001 136.733 152.732 136.499 153.327 136.049C153.922 135.598 154.345 134.958 154.526 134.234L154.649 133.741C155.239 131.382 155.083 128.899 154.201 126.633L152.961 123.443L149.254 125.111L148.113 132.97C148.046 133.426 148.077 133.892 148.204 134.335C148.33 134.779 148.549 135.191 148.845 135.544C149.142 135.898 149.51 136.184 149.925 136.385C150.341 136.586 150.794 136.697 151.255 136.711L151.255 136.711Z" fill="black"/>
<path d="M108.817 137.464C109.223 137.71 109.685 137.85 110.16 137.868C110.634 137.886 111.106 137.783 111.529 137.568L118.587 133.592C119.045 133.335 119.412 132.941 119.636 132.466C119.861 131.991 119.932 131.458 119.841 130.941L119.041 126.408H114.593L108.235 133.172C107.951 133.474 107.738 133.836 107.611 134.231C107.485 134.626 107.448 135.045 107.504 135.456C107.56 135.867 107.706 136.261 107.934 136.608C108.161 136.955 108.463 137.248 108.817 137.463V137.464Z" fill="black"/>
<path d="M121.043 20.9325C122.689 24.921 126.942 27.7605 131.93 27.7605C136.202 27.7605 139.936 25.6787 141.954 22.5719C141.958 22.4987 141.958 22.4224 141.958 22.3491C141.958 19.6858 140.946 17.1217 139.128 15.1758C137.309 13.2298 134.82 12.0473 132.162 11.8673C129.505 11.6873 126.879 12.5234 124.814 14.2064C122.75 15.8894 121.402 18.2936 121.043 20.9327V20.9325Z" fill="#2F2E41"/>
<path d="M102.545 51.9576C102.543 45.5227 100.426 39.2667 96.5217 34.152C92.617 29.0372 87.14 25.3469 80.9333 23.6486C74.7265 21.9504 68.1337 22.3382 62.1689 24.7524C56.2041 27.1667 51.1975 31.4737 47.9194 37.0109C44.6412 42.5482 43.2729 49.0091 44.025 55.3999C44.7771 61.7907 47.6078 67.7574 52.0819 72.3824C56.556 77.0074 62.4256 80.0345 68.7879 80.9981C75.1503 81.9616 81.653 80.8083 87.2959 77.7156C89.3262 79.1601 94.2792 82.0424 99.1721 79.966L93.2824 73.3635C96.2102 70.6203 98.5432 67.3047 100.137 63.6224C101.73 59.9401 102.55 55.9698 102.545 51.9576V51.9576Z" fill="#3D71F5"/>
<path d="M58.1593 47.1129C64.2355 47.0497 70.3111 46.9411 76.387 46.8586C78.4125 46.831 80.4381 46.8072 82.4638 46.7872C84.2093 46.7692 84.2136 44.0549 82.4638 44.0732C76.3877 44.1365 70.3121 44.2451 64.2362 44.3276C62.2106 44.3552 60.185 44.3789 58.1593 44.3989C56.4139 44.417 56.4096 47.1312 58.1593 47.1129Z" fill="white"/>
<path d="M58.1593 53.4456L82.7177 53.1912L89.702 53.1199C91.4475 53.1018 91.4518 50.3878 89.702 50.4059L65.1436 50.6605L58.1593 50.7318C56.4139 50.7499 56.4096 53.4639 58.1593 53.4458V53.4456Z" fill="white"/>
<path d="M58.1593 59.7785L82.7177 59.5241L89.702 59.4528C91.4475 59.4347 91.4518 56.7207 89.702 56.7387L65.1436 56.9931L58.1593 57.0644C56.4139 57.0825 56.4096 59.7965 58.1593 59.7785Z" fill="white"/>
</svg>
