<svg xmlns="http://www.w3.org/2000/svg" style="width:20px !important;" class="w-5 h-5" viewBox="0 0 20 20" fill="#545454"><path fill-rule="evenodd" clip-rule="evenodd" d="M15.7429 2.5H4.25714C3.28857 2.5 2.5 3.28857 2.5 4.26571V15.8543C2.5 16.8314 3.28857 17.62 4.25714 17.62H13.9771L13.5229 16.0343L14.62 17.0543L15.6571 18.0143L17.5 19.6429V4.26571C17.5 3.28857 16.7114 2.5 15.7429 2.5ZM12.4343 13.6943C12.4343 13.6943 12.1257 13.3257 11.8686 13C12.9914 12.6829 13.42 11.98 13.42 11.98C13.0686 12.2114 12.7343 12.3743 12.4343 12.4857C12.0057 12.6657 11.5943 12.7857 11.1914 12.8543C10.3686 13.0086 9.61429 12.9657 8.97143 12.8457C8.48286 12.7514 8.06286 12.6143 7.71143 12.4771C7.51429 12.4 7.3 12.3057 7.08571 12.1857C7.07286 12.1771 7.06 12.1707 7.04714 12.1643C7.03429 12.1579 7.02143 12.1514 7.00857 12.1429C6.99143 12.1343 6.98286 12.1257 6.97429 12.1171C6.82 12.0314 6.73429 11.9714 6.73429 11.9714C6.73429 11.9714 7.14571 12.6571 8.23429 12.9829C7.97714 13.3086 7.66 13.6943 7.66 13.6943C5.76571 13.6343 5.04571 12.3914 5.04571 12.3914C5.04571 9.63143 6.28 7.39429 6.28 7.39429C7.51429 6.46857 8.68857 6.49429 8.68857 6.49429L8.77429 6.59714C7.23143 7.04286 6.52 7.72 6.52 7.72C6.52 7.72 6.70857 7.61714 7.02571 7.47143C7.94286 7.06857 8.67143 6.95714 8.97143 6.93143L8.99065 6.92818C9.03389 6.92082 9.07225 6.91429 9.11714 6.91429C9.64 6.84571 10.2314 6.82857 10.8486 6.89714C11.6629 6.99143 12.5371 7.23143 13.4286 7.72C13.4286 7.72 12.7514 7.07714 11.2943 6.63143L11.4143 6.49429C11.4143 6.49429 12.5886 6.46857 13.8229 7.39429C13.8229 7.39429 15.0571 9.63143 15.0571 12.3914C15.0571 12.3914 14.3286 13.6343 12.4343 13.6943ZM8.44857 9.69143C7.96 9.69143 7.57429 10.12 7.57429 10.6429C7.57429 11.1657 7.96857 11.5943 8.44857 11.5943C8.93714 11.5943 9.32286 11.1657 9.32286 10.6429C9.33143 10.12 8.93714 9.69143 8.44857 9.69143ZM11.5771 9.69143C11.0886 9.69143 10.7029 10.12 10.7029 10.6429C10.7029 11.1657 11.0971 11.5943 11.5771 11.5943C12.0657 11.5943 12.4514 11.1657 12.4514 10.6429C12.4514 10.12 12.0657 9.69143 11.5771 9.69143Z"></path></svg>
