<svg width="149" height="138" viewBox="0 0 149 138" fill="none" xmlns="http://www.w3.org/2000/svg">
<path d="M134.298 96.0483C129.759 107.904 105.269 122.47 73.6943 131.103C36.5461 141.263 3.65937 139.363 0.240497 126.86C-3.17837 114.357 30.3781 130.872 67.5281 120.712C87.8139 115.164 104.973 102.811 116.931 94.7752C126.871 88.0928 133.216 84.3927 134.768 90.0693C135.281 91.9454 135.101 93.9547 134.298 96.0483Z" fill="#3D71F5"/>
<path opacity="0.1" d="M42.9883 129.292C52.3135 129.292 59.873 128.536 59.873 127.604C59.873 126.671 52.3135 125.915 42.9883 125.915C33.6631 125.915 26.1035 126.671 26.1035 127.604C26.1035 128.536 33.6631 129.292 42.9883 129.292Z" fill="black"/>
<path opacity="0.1" d="M11.498 127.772C15.741 127.772 19.1806 127.016 19.1806 126.084C19.1806 125.151 15.741 124.395 11.498 124.395C7.25504 124.395 3.81543 125.151 3.81543 126.084C3.81543 127.016 7.25504 127.772 11.498 127.772Z" fill="black"/>
<path d="M81.2502 77.2168C80.5748 77.2168 79.8953 77.1951 79.2266 77.1517L79.2483 76.8147C79.9109 76.8571 80.5837 76.8783 81.2487 76.8783H81.2687V77.2159H81.2528L81.2502 77.2168ZM83.3114 77.1497L83.2897 76.8128C83.9594 76.7694 84.6363 76.7028 85.3013 76.616L85.3447 76.9508C84.6721 77.0389 83.9883 77.1059 83.3114 77.15V77.1497ZM77.1931 76.9562C76.5205 76.8694 75.8412 76.7581 75.1753 76.6271L75.2404 76.2956C75.898 76.4257 76.5693 76.5342 77.2365 76.621L77.1931 76.9562ZM87.3614 76.6188L87.2963 76.2877C87.9541 76.1576 88.6165 76.0029 89.2648 75.8295L89.3515 76.155C88.6963 76.3305 88.0266 76.4863 87.3614 76.6182V76.6188ZM73.1856 76.1663C72.5312 75.9927 71.873 75.7933 71.2292 75.5755L71.3377 75.2557C71.9745 75.4711 72.6256 75.6679 73.2728 75.8399L73.1856 76.1663ZM91.307 75.5622L91.1985 75.2424C91.8318 75.0272 92.4671 74.7868 93.0861 74.5306L93.2163 74.8426C92.5895 75.1023 91.947 75.3444 91.3066 75.562L91.307 75.5622ZM69.3133 74.8556C68.6867 74.5963 68.0597 74.3132 67.4493 74.0116L67.5988 73.7079C68.2024 74.0053 68.8225 74.2863 69.443 74.5427L69.3133 74.8556ZM95.0745 73.9986L94.9248 73.6949C95.5265 73.3974 96.1253 73.0765 96.7039 72.7402L96.8731 73.0325C96.2873 73.3716 95.6818 73.6962 95.0737 73.9966L95.0745 73.9986ZM65.6455 73.047C65.0578 72.7075 64.4739 72.3438 63.9098 71.9665L64.0975 71.6858C64.656 72.0592 65.2337 72.4187 65.8152 72.7545L65.6455 73.047ZM98.6069 71.954L98.419 71.6732C98.9757 71.3007 99.5279 70.9043 100.061 70.4949L100.266 70.7626C99.7279 71.1766 99.1694 71.5773 98.6069 71.9537V71.954ZM62.2471 70.7746C61.7092 70.3623 61.1774 69.9254 60.6667 69.4778L60.8893 69.2239C61.3944 69.6668 61.9205 70.0983 62.4527 70.5068L62.2471 70.7746ZM101.844 69.4654L101.621 69.2116C102.125 68.769 102.622 68.304 103.096 67.8293L103.335 68.068C102.855 68.5477 102.354 69.0176 101.844 69.465L101.844 69.4654ZM59.174 68.0816C58.6937 67.6022 58.2233 67.1008 57.7759 66.5913L58.0296 66.3685C58.4724 66.8723 58.9378 67.3685 59.4127 67.8439L59.174 68.0816ZM104.733 66.5768L104.479 66.354C104.922 65.8493 105.354 65.3236 105.763 64.7919L106.031 64.9975C105.617 65.5354 105.181 66.0667 104.733 66.577V66.5768ZM56.4776 65.0134C56.0641 64.476 55.6629 63.9179 55.2844 63.3549L55.5649 63.1668C55.9383 63.724 56.3353 64.2759 56.7443 64.8075L56.4776 65.0134ZM107.225 63.3363L106.943 63.1484C107.316 62.5901 107.676 62.0124 108.013 61.4314L108.305 61.6006C107.965 62.1879 107.601 62.7722 107.223 63.3363H107.225ZM54.2056 61.6223C53.8654 61.0352 53.5406 60.429 53.2401 59.8235L53.5428 59.6735C53.84 60.2737 54.1614 60.8722 54.4974 61.4526L54.2056 61.6223ZM109.271 59.7963L108.967 59.6469C109.264 59.045 109.546 58.4249 109.803 57.8038L110.115 57.934C109.855 58.5621 109.571 59.1888 109.269 59.7972L109.271 59.7963ZM52.394 57.965C52.1336 57.3393 51.8911 56.6971 51.6728 56.0557L51.9926 55.9472C52.2085 56.581 52.4482 57.2162 52.7058 57.8348L52.394 57.965ZM110.838 56.0178L110.518 55.9093C110.733 55.2734 110.93 54.6225 111.104 53.9746L111.429 54.0614C111.254 54.7164 111.055 55.3745 110.837 56.0171L110.838 56.0178ZM51.0781 54.1013C50.9022 53.4463 50.746 52.7768 50.6134 52.1114L50.9447 52.0463C51.0749 52.7043 51.2302 53.3665 51.4042 54.0146L51.0781 54.1013ZM111.892 52.0712L111.561 52.0061C111.691 51.3481 111.801 50.677 111.888 50.0114L112.222 50.0548C112.136 50.7274 112.024 51.406 111.892 52.0712V52.0712ZM50.2812 50.0954C50.1929 49.4245 50.1255 48.7405 50.0806 48.062L50.4175 48.0403C50.4609 48.7114 50.5286 49.3881 50.6158 50.0518L50.2812 50.0954ZM112.421 48.021L112.084 47.9993C112.127 47.3322 112.149 46.6524 112.149 45.979V45.8989H112.486V45.9779C112.486 46.6596 112.465 47.3467 112.421 48.021H112.421ZM50.3491 46.0193H50.0122V45.9779C50.0122 45.3125 50.0339 44.6392 50.0753 43.9775L50.4123 43.9992C50.3708 44.654 50.3498 45.3201 50.3498 45.9794L50.3491 46.0193ZM112.077 43.8788C112.032 43.209 111.965 42.5321 111.876 41.8676L112.211 41.8231C112.301 42.4957 112.369 43.1791 112.414 43.8562L112.077 43.8788ZM50.6045 41.9869L50.2695 41.9435C50.3563 41.2709 50.4665 40.5921 50.5971 39.9258L50.9286 39.9909C50.7998 40.6508 50.6906 41.3221 50.6047 41.9878L50.6045 41.9869ZM111.544 39.8739C111.413 39.2163 111.257 38.5544 111.082 37.9063L111.408 37.8182C111.584 38.4734 111.741 39.1417 111.875 39.8075L111.544 39.8739ZM51.3834 38.0232L51.058 37.9365C51.2315 37.2804 51.4307 36.6221 51.6477 35.9797L51.9675 36.0882C51.752 36.723 51.5559 37.3741 51.3834 38.0232ZM110.491 35.974C110.274 35.3399 110.034 34.705 109.775 34.0865L110.087 33.9563C110.347 34.5812 110.591 35.2229 110.81 35.864L110.491 35.974ZM52.6771 34.1924L52.3649 34.0635C52.6242 33.436 52.9073 32.8088 53.2078 32.1991L53.5116 32.3484C53.2141 32.9513 52.9336 33.5716 52.6774 34.1924H52.6771ZM108.937 32.2506C108.64 31.652 108.318 31.0538 107.98 30.4715L108.272 30.3018C108.614 30.8896 108.939 31.4951 109.239 32.0996L108.937 32.2506ZM54.464 30.563L54.1716 30.3945C54.5105 29.8069 54.8736 29.2229 55.2509 28.6575L55.5317 28.8449C55.1585 29.4038 54.7994 29.982 54.464 30.5633V30.563ZM106.908 28.7599C106.533 28.2027 106.136 27.6512 105.726 27.1207L105.994 26.9144C106.408 27.4507 106.81 28.0081 107.188 28.5713L106.908 28.7599ZM56.7089 27.2001L56.441 26.9947C56.8532 26.456 57.2897 25.924 57.7367 25.4135L57.9907 25.6359C57.5488 26.1409 57.1175 26.6673 56.7089 27.1999V27.2001ZM104.44 25.5617C103.997 25.0587 103.531 24.5636 103.055 24.0891L103.294 23.8505C103.775 24.33 104.246 24.8307 104.694 25.3391L104.44 25.5617ZM59.3715 24.1588L59.1328 23.9201C59.6121 23.4398 60.113 22.969 60.6222 22.521L60.8453 22.7744C60.3417 23.2176 59.846 23.6834 59.3721 24.1586L59.3715 24.1588ZM101.577 22.7095C101.071 22.2671 100.545 21.8362 100.012 21.4294L100.217 21.1613C100.756 21.5735 101.288 22.0089 101.799 22.4561L101.577 22.7095ZM62.4046 21.4897L62.1985 21.2222C62.7354 20.8083 63.2932 20.4069 63.8563 20.0289L64.0446 20.3093C63.4879 20.6833 62.9361 21.0803 62.405 21.4897H62.4046ZM98.3667 20.2531C97.808 19.8805 97.2296 19.5217 96.6477 19.1865L96.8163 18.8938C97.4047 19.2327 97.9894 19.5955 98.5542 19.9721L98.3667 20.2531ZM65.7575 19.239L65.588 18.947C66.1738 18.6068 66.7787 18.2815 67.3862 17.9802L67.5363 18.2828C66.9351 18.5803 66.3374 18.9018 65.7577 19.2383L65.7575 19.239ZM94.8619 18.2347C94.2588 17.9381 93.6383 17.658 93.0177 17.402L93.1464 17.0898C93.7741 17.3484 94.4015 17.6322 95.0123 17.9314L94.8619 18.2347ZM69.3738 17.4456L69.2436 17.1338C69.8693 16.8735 70.5113 16.6303 71.1529 16.4116L71.2613 16.7311C70.6276 16.9466 69.9926 17.1872 69.3738 17.4456ZM91.1217 16.6925C90.4858 16.4782 89.8345 16.2825 89.186 16.1106L89.2728 15.7852C89.9287 15.9588 90.5869 16.1568 91.2298 16.3736L91.1217 16.6925ZM73.1945 16.1417L73.1077 15.8162C73.7625 15.64 74.4311 15.4832 75.097 15.3502L75.1634 15.6813C74.5051 15.813 73.8432 15.9681 73.1953 16.1425L73.1945 16.1417ZM87.216 15.6574C86.5584 15.5287 85.8871 15.42 85.22 15.3346L85.2634 14.9996C85.9359 15.0864 86.6157 15.1948 87.2811 15.325L87.216 15.6574ZM77.1562 15.35L77.1128 15.0152C77.7836 14.9265 78.4675 14.8585 79.1461 14.8134L79.1678 15.1504C78.4968 15.1951 77.8199 15.2623 77.1564 15.3502L77.1562 15.35ZM83.2094 15.1426C82.5611 15.102 81.9015 15.0814 81.2489 15.0814H81.1888V14.7438H81.2483C81.9087 14.7438 82.5752 14.7655 83.2304 14.8056L83.2094 15.1426Z" fill="#E6E6E6"/>
<path d="M81.2611 67.7612V67.4236C81.9208 67.4236 82.5865 67.3926 83.2395 67.3325L83.2705 67.6688C82.6071 67.7298 81.931 67.761 81.2611 67.7612ZM79.2524 67.671C78.5861 67.6104 77.9157 67.5191 77.2601 67.3967L77.3215 67.0646C77.9669 67.1841 78.6269 67.2748 79.2832 67.3345L79.2524 67.671ZM85.2622 67.3922L85.2006 67.0602C85.8476 66.9396 86.4961 66.7875 87.1281 66.6076L87.2205 66.9331C86.5783 67.1158 85.9188 67.2705 85.2622 67.3928V67.3922ZM75.3014 66.9394C74.6587 66.7573 74.017 66.543 73.3936 66.3017L73.5156 65.9867C74.1291 66.2241 74.7609 66.4352 75.3936 66.6144L75.3014 66.9394ZM89.1272 66.2926L89.0053 65.9778C89.6175 65.7391 90.2265 65.4705 90.8158 65.1766L90.9666 65.4786C90.3682 65.7773 89.7494 66.0513 89.1274 66.2926H89.1272ZM71.5534 65.4899C70.9554 65.1922 70.364 64.8626 69.796 64.5107L69.9737 64.2237C70.533 64.5708 71.1151 64.8945 71.7039 65.1876L71.5534 65.4899ZM92.7229 64.4981L92.5448 64.2113C93.1028 63.8642 93.6513 63.4875 94.1772 63.0903L94.3809 63.3595C93.8474 63.7633 93.2896 64.1462 92.7229 64.4981V64.4981ZM68.1362 63.3738C67.6036 62.9718 67.0827 62.5394 66.5882 62.0892L66.8156 61.8395C67.3024 62.2827 67.8153 62.7073 68.3397 63.1044L68.1362 63.3738ZM95.9272 62.0721L95.6996 61.8226C96.1851 61.3795 96.6562 60.9083 97.0996 60.4219L97.3493 60.6495C96.8989 61.1433 96.4203 61.6221 95.9272 62.0721ZM65.1647 60.667C64.7137 60.1734 64.2806 59.6532 63.8775 59.1214L64.1468 58.9175C64.5434 59.4412 64.9697 59.9532 65.414 60.4394L65.1647 60.667ZM98.6353 59.1023L98.3658 58.8986C98.7628 58.3733 99.1397 57.8238 99.4862 57.2653L99.773 57.4432C99.4213 58.0106 99.0384 58.5686 98.6348 59.1021L98.6353 59.1023ZM62.7374 57.4647C62.3846 56.8973 62.0542 56.3068 61.7554 55.7093L62.0574 55.5574C62.3516 56.1456 62.6768 56.727 63.0242 57.2855L62.7374 57.4647ZM100.753 55.6871L100.451 55.5363C100.744 54.9484 101.013 54.3387 101.251 53.7249L101.566 53.8469C101.324 54.4704 101.051 55.0896 100.753 55.6871ZM60.9403 53.8707C60.6984 53.2483 60.4827 52.6069 60.2994 51.9641L60.6248 51.8714C60.8053 52.5043 61.0177 53.1357 61.256 53.7484L60.9403 53.8707ZM102.204 51.9398L101.879 51.8476C102.058 51.2147 102.21 50.566 102.33 49.9197L102.663 49.9813C102.541 50.6365 102.387 51.2965 102.205 51.9383L102.204 51.9398ZM59.8383 50.0067C59.716 49.3514 59.6225 48.6813 59.5609 48.0147L59.8971 47.9835C59.9579 48.6396 60.049 49.2994 60.1705 49.9446L59.8383 50.0067ZM102.938 47.9889L102.602 47.9581C102.662 47.3051 102.692 46.6397 102.692 45.9801V45.9298H103.03V45.9784C103.03 46.6496 102.999 47.3257 102.939 47.9887L102.938 47.9889ZM59.8047 46.0053H59.4678V45.9801C59.4678 45.3192 59.4977 44.6516 59.5569 43.9966L59.8932 44.027C59.8349 44.6722 59.8065 45.3288 59.8065 45.9797L59.8047 46.0053ZM102.597 43.9524C102.536 43.2958 102.443 42.6361 102.322 41.9917L102.653 41.9294C102.777 42.584 102.87 43.254 102.933 43.9209L102.597 43.9524ZM60.1612 42.0648L59.829 42.0036C59.9501 41.3469 60.1037 40.688 60.2846 40.0447L60.6101 40.1365C60.4317 40.77 60.2807 41.4187 60.1621 42.0652L60.1612 42.0648ZM101.866 40.0644C101.685 39.432 101.472 38.8009 101.233 38.1884L101.548 38.0658C101.79 38.688 102.007 39.3292 102.191 39.9716L101.866 40.0644ZM61.2371 38.2582L60.9221 38.1365C61.1627 37.5136 61.4356 36.8942 61.7331 36.2954L62.0355 36.4457C61.7426 37.0354 61.4738 37.6453 61.2371 38.2585V38.2582ZM100.428 36.3794C100.134 35.7925 99.8082 35.2115 99.4597 34.6526L99.7463 34.474C100.1 35.0418 100.431 35.6319 100.73 36.2281L100.428 36.3794ZM62.9984 34.7151L62.7111 34.5374C63.0626 33.9694 63.4447 33.4107 63.8474 32.877L64.117 33.0803C63.7202 33.6051 63.3444 34.1562 62.9984 34.7153V34.7151ZM98.3359 33.0228C97.938 32.4992 97.5114 31.9876 97.0667 31.5023L97.3157 31.2743C97.767 31.7672 98.2007 32.2866 98.6047 32.8184L98.3359 33.0228ZM65.381 31.5565L65.1313 31.3294C65.5809 30.8351 66.0588 30.3559 66.5518 29.905L66.7796 30.1541C66.2942 30.598 65.8236 31.0699 65.381 31.5565ZM95.6633 30.1046C95.1763 29.662 94.6629 29.2368 94.1379 28.8415L94.341 28.5718C94.8743 28.9736 95.3956 29.4052 95.8905 29.8547L95.6633 30.1046ZM68.3007 28.886L68.0965 28.6169C68.6289 28.2132 69.1863 27.8294 69.7532 27.4764L69.9316 27.7632C69.3733 28.1103 68.8251 28.4885 68.3005 28.8862L68.3007 28.886ZM92.5025 27.7241C91.9431 27.3785 91.3606 27.0548 90.7713 26.7621L90.9214 26.4597C91.5203 26.7569 92.1119 27.0856 92.6799 27.436L92.5025 27.7241ZM71.6592 26.7953L71.5074 26.4933C72.1047 26.1941 72.7224 25.9197 73.3455 25.6771L73.468 25.9917C72.8556 26.2304 72.2468 26.5005 71.6586 26.7945L71.6592 26.7953ZM88.9584 25.9648C88.3444 25.7281 87.7124 25.5179 87.0797 25.3393L87.1715 25.0139C87.8141 25.195 88.4564 25.409 89.0808 25.6491L88.9584 25.9648ZM75.3452 25.3599L75.2525 25.0345C75.895 24.8509 76.5543 24.6954 77.21 24.5723L77.2722 24.9043C76.6261 25.0254 75.9776 25.1783 75.3452 25.3599V25.3599ZM85.1518 24.8913C84.5059 24.7726 83.8459 24.6826 83.1901 24.6238L83.22 24.2875C83.8863 24.3471 84.5567 24.4394 85.2128 24.5593L85.1518 24.8913ZM79.2338 24.6309L79.2025 24.2946C79.8658 24.2328 80.5416 24.2009 81.2112 24.1998V24.5374C80.5516 24.5387 79.8862 24.57 79.2331 24.6307L79.2338 24.6309Z" fill="#E6E6E6"/>
<path d="M84.2052 90.2989C83.2328 89.9815 82.0198 89.4224 81.2572 88.809L81.8338 90.2243C62.1908 90.4963 44.5461 77.58 38.8756 58.7096C33.2259 39.9046 40.7716 19.4397 57.2292 8.81689L57.5329 10.3139C57.8282 9.38099 58.5283 8.24346 59.1623 7.44049C58.1584 7.63576 56.8263 7.73642 55.8619 7.57067L57.0532 8.52703C48.9708 13.7509 42.7953 21.4495 39.4492 30.4727C36.1031 39.4959 35.7659 49.3595 38.4881 58.5901C41.2103 67.8207 46.8457 75.923 54.5526 81.6866C62.2595 87.4501 71.6242 90.5657 81.2478 90.5679C81.4472 90.5679 81.6472 90.5643 81.8473 90.5614L81.3852 92.0179C82.0966 91.346 83.2612 90.692 84.2052 90.2989Z" fill="#212839"/>
<path d="M123.934 33.1549C121.262 24.2597 115.879 16.4211 108.536 10.7333C101.193 5.04556 92.258 1.79263 82.9772 1.42869L83.5157 0C82.7696 0.633092 81.5717 1.22453 80.6084 1.56711C81.563 1.93594 82.7442 2.55862 83.4723 3.21145L82.9713 1.7665C92.1471 2.12806 100.983 5.33518 108.255 10.9433C115.526 16.5514 120.873 24.2828 123.554 33.0657C126.235 41.8486 126.117 51.2479 123.217 59.9609C120.317 68.6739 114.778 76.2689 107.369 81.6931L106.978 80.2147C106.738 81.1633 106.106 82.341 105.52 83.1789C106.511 82.9248 107.835 82.7462 108.807 82.8547L107.563 81.9704C115.003 76.5244 120.573 68.906 123.505 60.1639C126.437 51.4218 126.587 41.9858 123.934 33.1549V33.1549Z" fill="#212839"/>
<path opacity="0.1" d="M134.299 96.0483C133.136 96.1006 131.94 96.1277 130.721 96.1277C125.449 96.1277 120.631 95.6179 116.931 94.7752C126.871 88.0928 133.216 84.3927 134.768 90.0693C135.281 91.9454 135.101 93.9547 134.299 96.0483Z" fill="black"/>
<path d="M37.2011 7.65149C32.521 7.65149 29.1138 10.8293 27.9653 15.3662L26.542 22.1725H27.555L29.75 16.6005L29.2878 22.1725H30.4256L31.2698 19.3021L31.0921 22.1725H44.7775V15.2275C44.7776 14.2326 44.5816 13.2475 44.2009 12.3283C43.8202 11.4091 43.2621 10.5739 42.5586 9.8704C41.8551 9.16689 41.0199 8.60885 40.1008 8.22812C39.1816 7.8474 38.1964 7.65146 37.2015 7.65149H37.2011Z" fill="#2F2E41"/>
<path d="M28.4004 58.485L31.6086 73.9891L49.1688 74.2475L44.7788 57.968L28.4004 58.485Z" fill="#3F3D56"/>
<path opacity="0.1" d="M28.4004 58.485L31.6086 73.9891L49.1688 74.2475L44.7788 57.968L28.4004 58.485Z" fill="black"/>
<path d="M31.0166 46.4021C31.0166 46.4021 24.0938 56.0256 24.4314 59.9092C24.769 63.7928 29.1592 127.111 29.1592 127.111L39.459 127.617L36.4196 82.029L38.9524 69.703L45.1997 127.111L57.8633 127.448L46.5505 52.9882L44.3556 46.4032L31.0166 46.4021Z" fill="#6660BF"/>
<path d="M33.3803 17.0225C33.3803 17.0225 35.5753 21.0749 32.7049 23.7765C29.8345 26.4781 28.4844 33.7385 28.4844 33.7385L44.6937 32.5565L43.3429 23.4387C43.3429 23.4387 39.7965 21.2437 40.6407 17.3601L33.3803 17.0225Z" fill="#A0616A"/>
<path d="M33.3803 17.0225C33.3803 17.0225 35.5753 21.0749 32.7049 23.7765C29.8345 26.4781 28.4844 33.7385 28.4844 33.7385L44.6937 32.5565L43.3429 23.4387C43.3429 23.4387 39.7965 21.2437 40.6407 17.3601L33.3803 17.0225Z" fill="#FFBE9D"/>
<path d="M30.6787 27.8289C30.6787 27.8289 31.6916 30.8681 36.081 30.5305C38.7538 30.3074 41.3185 29.3747 43.5104 27.8289V47.5845L30.0039 47.0775V35.0893L30.6787 27.8289Z" fill="#F8FAFF"/>
<path d="M33.8261 22.165L32.5356 23.1007L24.7684 26.8153L27.47 40.8297L29.3274 43.8689V47.5841L24.7686 54.0003C23.7439 58.5473 23.1783 63.1858 23.0802 67.8459C22.9114 75.6131 24.9376 73.5866 25.9506 73.4178C26.9636 73.2491 29.1588 72.7424 29.1588 72.7424L25.6128 56.1953L31.5235 47.5841L32.5365 44.2071C32.5365 44.2071 32.1989 36.2713 30.8481 33.0631C30.8472 33.0631 33.4284 24.6069 33.8261 22.165Z" fill="#FAE499"/>
<path d="M40.9259 20.5683L44.0178 23.6075L50.0964 25.4649L47.226 41.3367L45.5376 44.7136L45.8761 48.0911C45.8761 48.0911 52.2033 54.8772 53.1365 68.3528C53.6266 75.4301 52.6136 75.0923 52.6136 75.0923L40.1353 74.9378L38.1089 46.9086L41.9925 25.8027L40.9259 20.5683Z" fill="#FAE499"/>
<path d="M53.6418 61.0919C53.6418 61.0919 55.3302 68.3522 51.9534 69.1966C48.5767 70.0411 49.7585 61.0919 49.7585 61.0919H53.6418Z" fill="#FFBE9D"/>
<path d="M23.8591 53.5558C23.8591 53.5558 30.361 57.2008 28.7086 60.2654C27.0562 63.3299 21.2417 56.4252 21.2417 56.4252L23.8591 53.5558Z" fill="#FFBE9D"/>
<path d="M47.5634 25.8026L50.0962 25.465C50.0962 25.465 51.6149 27.4912 51.7846 29.0108C51.9542 30.5304 54.655 56.1959 54.655 56.1959L57.3566 61.0925C57.3566 61.0925 57.1878 61.9367 55.8378 61.9367H54.487L53.9804 63.9629C53.9804 63.9629 52.9675 60.0793 49.0839 62.1055L47.5651 61.5989L48.5781 59.7415C48.5781 59.7415 47.5651 50.7925 47.5651 46.572C47.5651 42.3515 47.2275 37.7918 47.2275 37.7918L47.5634 25.8026Z" fill="#FAE499"/>
<path d="M35.3311 128.266C36.657 128.266 37.732 127.863 37.732 127.366C37.732 126.868 36.657 126.465 35.3311 126.465C34.0051 126.465 32.9302 126.868 32.9302 127.366C32.9302 127.863 34.0051 128.266 35.3311 128.266Z" fill="#2F2E41"/>
<path d="M51.5376 128.266C52.8636 128.266 53.9385 127.863 53.9385 127.366C53.9385 126.868 52.8636 126.465 51.5376 126.465C50.2116 126.465 49.1367 126.868 49.1367 127.366C49.1367 127.863 50.2116 128.266 51.5376 128.266Z" fill="#2F2E41"/>
<path d="M26.6263 26.6469L24.7689 26.8157L20.5477 43.1939C20.5477 43.1939 18.8594 54 19.197 54.5066C19.5345 55.0132 19.197 55.8574 18.8594 56.195C18.5218 56.5326 20.2102 61.2604 21.8985 61.0916C23.5869 60.9228 24.2634 60.4162 24.2634 60.4162C24.2634 60.4162 22.7447 56.0262 26.6283 54.5066L27.6413 51.1296L26.6283 45.5577L27.9791 37.7905L26.6263 26.6469Z" fill="#FAE499"/>
<path d="M42.8357 16.2627C42.9755 16.2627 43.0889 15.8848 43.0889 15.4185C43.0889 14.9523 42.9755 14.5743 42.8357 14.5743C42.6959 14.5743 42.5825 14.9523 42.5825 15.4185C42.5825 15.8848 42.6959 16.2627 42.8357 16.2627Z" fill="#FFBE9D"/>
<path d="M31.3543 16.2627C31.4941 16.2627 31.6075 15.8848 31.6075 15.4185C31.6075 14.9523 31.4941 14.5743 31.3543 14.5743C31.2144 14.5743 31.1011 14.9523 31.1011 15.4185C31.1011 15.8848 31.2144 16.2627 31.3543 16.2627Z" fill="#FFBE9D"/>
<path d="M37.0954 20.5686C40.1727 20.5686 42.6674 18.0739 42.6674 14.9966C42.6674 11.9193 40.1727 9.42462 37.0954 9.42462C34.0181 9.42462 31.5234 11.9193 31.5234 14.9966C31.5234 18.0739 34.0181 20.5686 37.0954 20.5686Z" fill="#FFBE9D"/>
<path d="M34.6466 12.0416L34.5042 13.3923H38.3605L38.8678 12.3802L38.761 13.3932H43.4257L40.2186 8.32697L33.127 8.49576L31.4395 13.3923H33.9723L34.6466 12.0416Z" fill="#2F2E41"/>
<path d="M130.721 90.5557C140.513 90.5557 148.45 82.6182 148.45 72.8268C148.45 63.0354 140.513 55.0978 130.721 55.0978C120.93 55.0978 112.992 63.0354 112.992 72.8268C112.992 82.6182 120.93 90.5557 130.721 90.5557Z" fill="#BDD1F9"/>
<path d="M131.903 56.6177C139.177 56.6177 145.073 50.7213 145.073 43.4476C145.073 36.1739 139.177 30.2774 131.903 30.2774C124.629 30.2774 118.733 36.1739 118.733 43.4476C118.733 50.7213 124.629 56.6177 131.903 56.6177Z" fill="#BDD1F9"/>
<path d="M131.903 31.1215C138.15 31.1215 143.215 26.0566 143.215 19.8087C143.215 13.5608 138.15 8.49591 131.903 8.49591C125.655 8.49591 120.59 13.5608 120.59 19.8087C120.59 26.0566 125.655 31.1215 131.903 31.1215Z" fill="#BDD1F9"/>
<path d="M132.072 10.1841C134.496 10.1841 136.462 8.21862 136.462 5.7941C136.462 3.36958 134.496 1.40411 132.072 1.40411C129.647 1.40411 127.682 3.36958 127.682 5.7941C127.682 8.21862 129.647 10.1841 132.072 10.1841Z" fill="#3D71F5"/>
<path opacity="0.77" d="M10.9087 119.314C12.041 123.5 15.9205 126.092 15.9205 126.092C15.9205 126.092 17.9632 121.898 16.8318 117.712C15.7003 113.526 11.82 110.934 11.82 110.934C11.82 110.934 9.7764 115.128 10.9087 119.314Z" fill="#3D71F5"/>
<path opacity="0.77" d="M12.5731 118.414C15.6804 121.439 16.0599 126.088 16.0599 126.088C16.0599 126.088 11.4017 125.834 8.29439 122.809C5.18708 119.784 4.80762 115.135 4.80762 115.135C4.80762 115.135 9.46598 115.389 12.5731 118.414Z" fill="#3D71F5"/>
<path d="M81.249 39.0573C82.6182 39.0573 83.9566 39.4633 85.0951 40.224C86.2335 40.9847 87.1208 42.0659 87.6448 43.3309C88.1687 44.5958 88.3058 45.9878 88.0387 47.3307C87.7716 48.6736 87.1123 49.9071 86.1441 50.8752C85.1759 51.8434 83.9424 52.5027 82.5995 52.7699C81.2566 53.037 79.8647 52.8999 78.5997 52.3759C77.3347 51.8519 76.2536 50.9646 75.4929 49.8262C74.7322 48.6877 74.3262 47.3493 74.3262 45.9801C74.3262 44.1441 75.0555 42.3832 76.3538 41.0849C77.6521 39.7867 79.4129 39.0573 81.249 39.0573Z" fill="#212839"/>
</svg>
