<svg width="161" height="138" viewBox="0 0 161 138" fill="none" xmlns="http://www.w3.org/2000/svg">
<path d="M161 123.806H137.449V137.393H161V123.806Z" fill="#3D71F5"/>
<path d="M112.639 134.25C112.428 134.969 112.33 135.807 112.769 136.415C113.011 136.719 113.331 136.953 113.694 137.093C114.628 137.458 115.634 137.606 116.634 137.524C116.826 137.533 117.017 137.502 117.196 137.433C117.375 137.364 117.538 137.259 117.674 137.125C119.995 135.203 121.565 132.526 122.107 129.563C122.151 129.41 122.143 129.247 122.085 129.099C122.008 128.984 121.901 128.894 121.776 128.837C121.26 128.513 120.703 128.259 120.12 128.081C116.932 127.258 113.429 131.563 112.639 134.25Z" fill="#2F2E41"/>
<path d="M146.072 124.173C146.5 124.671 147.028 125.073 147.622 125.353C147.919 125.491 148.244 125.56 148.572 125.554C148.9 125.549 149.223 125.469 149.516 125.321C150.393 124.823 150.641 123.662 150.571 122.655C150.442 120.793 149.552 119.115 148.53 117.593C148.207 117.112 147.491 115.68 146.862 115.662C146.564 115.654 145.447 116.736 145.144 116.942C144.036 117.694 143.268 118.233 143.499 119.677C143.757 121.289 144.989 123.013 146.072 124.173Z" fill="#2F2E41"/>
<path d="M136.357 47.1552C131.639 46.7894 127.133 46.9248 122.408 46.6823C122.011 46.6619 122.202 51.2082 121.791 53.6769C121.579 54.945 114.465 129.274 115.348 129.425C117.616 129.899 119.909 130.239 122.217 130.442C123.153 130.524 131.878 82.0933 131.46 78.1574C132.602 79.8331 136.626 87.5684 138.661 96.4668C141.345 108.207 142.136 121.487 143.804 120.742C144.878 119.268 146.335 118.115 148.017 117.41C150.774 116.384 146.305 59.9084 141.583 57.3121C141.525 55.659 141.465 53.9656 140.842 52.4335C139.963 50.272 138.229 48.546 136.357 47.1552Z" fill="#6660BF"/>
<path d="M0 16.7045H102.114V0.193359H0V16.7045Z" fill="#F8FAFF"/>
<path d="M0 50.1626H102.114V33.6516H0V50.1626Z" fill="#F8FAFF"/>
<path d="M0 83.3643H102.114V66.8534H0V83.3643Z" fill="#F8FAFF"/>
<path d="M8.93927 14.6027C12.4133 14.6027 15.2296 11.7864 15.2296 8.31231C15.2296 4.83825 12.4133 2.02197 8.93927 2.02197C5.46521 2.02197 2.64893 4.83825 2.64893 8.31231C2.64893 11.7864 5.46521 14.6027 8.93927 14.6027Z" fill="#3D71F5"/>
<path d="M86.0638 5.85077H23.9814V7.2183H86.0638V5.85077Z" fill="#3D71F5"/>
<path d="M86.0638 9.40607H23.9814V10.7736H86.0638V9.40607Z" fill="#3D71F5"/>
<path d="M8.93927 48.2607C12.4133 48.2607 15.2296 45.4444 15.2296 41.9703C15.2296 38.4963 12.4133 35.68 8.93927 35.68C5.46521 35.68 2.64893 38.4963 2.64893 41.9703C2.64893 45.4444 5.46521 48.2607 8.93927 48.2607Z" fill="#BDD1F9"/>
<path d="M86.0638 39.509H23.9814V40.8766H86.0638V39.509Z" fill="#BDD1F9"/>
<path d="M86.0638 43.0643H23.9814V44.4318H86.0638V43.0643Z" fill="#BDD1F9"/>
<path d="M8.93927 81.5359C12.4133 81.5359 15.2296 78.7197 15.2296 75.2456C15.2296 71.7715 12.4133 68.9553 8.93927 68.9553C5.46521 68.9553 2.64893 71.7715 2.64893 75.2456C2.64893 78.7197 5.46521 81.5359 8.93927 81.5359Z" fill="#BDD1F9"/>
<path d="M86.0638 72.7841H23.9814V74.1517H86.0638V72.7841Z" fill="#BDD1F9"/>
<path d="M86.0638 76.3396H23.9814V77.7071H86.0638V76.3396Z" fill="#BDD1F9"/>
<path d="M135.194 11.1026C132.746 6.96534 127.903 6.77263 127.903 6.77263C127.903 6.77263 123.182 6.16891 120.154 12.4701C117.332 18.3431 113.437 24.0137 119.527 25.3887L120.627 21.9645L121.309 25.6437C122.176 25.7063 123.046 25.7214 123.915 25.6889C130.436 25.4783 136.649 25.7505 136.449 23.4099C136.182 20.2974 137.55 15.0834 135.194 11.1026Z" fill="black"/>
<path d="M126.162 25.199C126.173 25.6645 126.17 26.1557 125.938 26.5601C125.48 27.3616 124.36 27.4816 123.686 28.1134C122.978 28.7778 122.898 29.8559 122.864 30.8263C122.829 31.841 122.799 32.889 123.169 33.8344C123.396 34.3552 123.683 34.8478 124.023 35.3023C124.435 35.8951 124.85 36.4853 125.269 37.0729C125.493 37.4038 125.742 37.7166 126.015 38.0086C126.765 38.7726 127.794 39.1956 128.821 39.4975C129.485 39.6925 130.203 39.8444 130.859 39.6334C131.295 39.4633 131.697 39.2163 132.045 38.9042C132.554 38.5391 133.007 38.1007 133.387 37.6032C133.94 36.8009 134.093 35.7966 134.208 34.829C134.547 31.9675 134.679 29.0853 134.603 26.2048C134.617 25.891 134.561 25.578 134.438 25.2886C134.097 24.6226 133.184 24.4804 132.702 23.9073C132.291 23.4175 132.274 22.7184 132.278 22.0787L132.286 20.4501C132.301 20.3129 132.273 20.1745 132.207 20.0533C132.148 19.988 132.076 19.9351 131.995 19.8977C131.915 19.8603 131.829 19.8391 131.74 19.8352C130.728 19.6666 129.702 19.5973 128.676 19.6283C127.845 19.6536 126.249 19.583 125.53 20.0472C124.878 20.4675 125.695 21.6287 125.846 22.2809C126.049 23.2402 126.155 24.2177 126.162 25.1983V25.199Z" fill="#FFBE9D"/>
<path d="M128.07 22.4016C131.706 22.4016 134.653 19.4542 134.653 15.8184C134.653 12.1827 131.706 9.23529 128.07 9.23529C124.434 9.23529 121.487 12.1827 121.487 15.8184C121.487 19.4542 124.434 22.4016 128.07 22.4016Z" fill="#FFBE9D"/>
<path d="M126.579 30.0556C123.183 19.2883 121.392 34.4118 119.25 38.5414C119.269 41.3886 119.347 49.2631 120.012 52.2478C122.599 63.842 135.409 62.9322 139.261 53.1536C141.313 47.9452 136.761 35.0348 136.915 29.0112C131.274 23.2954 130.926 41.4291 126.579 30.0556Z" fill="#EAEAEA"/>
<path d="M122.85 26.3624C115.488 29.9403 119 39.5543 116.331 45.846C114.2 54.478 108.78 57.1923 121.173 57.3934C123.843 49.5034 121.235 40.9329 124.876 32.8989C125.126 29.7512 126.206 28.5689 126.11 25.9043C125.397 24.7983 123.547 26.0198 122.85 26.3624Z" fill="#FAE499"/>
<path d="M134.112 10.7038L129.326 8.19678L122.717 9.22237L121.35 15.2618L124.753 15.1298L125.704 12.9106V15.0926L127.275 15.0324L128.187 11.4998L128.756 15.2602L134.34 15.147L134.112 10.7038Z" fill="black"/>
<path d="M131.152 29.3928C134.941 28.9505 131.247 24.3998 134.254 24.4772C143.26 22.9625 145.955 28.5407 142.53 36.326C139.39 42.562 150.496 51.3218 144.292 54.8112C142.09 55.6194 138.937 58.1627 136.785 57.0551C133.33 48.3712 133.205 38.4492 131.152 29.3928Z" fill="#FAE499"/>
<path d="M141.699 54.1846C140.379 54.8155 139.336 55.8189 138.452 56.9847C138.265 57.2315 138.516 57.6916 139.076 57.6842C139.597 57.6771 139.909 57.0087 140.431 57.0016C140.59 58.395 140.879 59.7706 141.292 61.1106C142.333 60.1973 142.955 58.9115 143.551 57.6622L144.729 55.1928C145.161 54.287 145.594 53.3791 145.983 52.4527C146.089 52.2363 146.155 52.0023 146.177 51.7623C146.228 50.1692 144.657 50.1594 143.98 51.1565C143.239 52.2466 143.008 53.5571 141.699 54.1846Z" fill="#FFBE9D"/>
<path d="M141.97 26.7938C142.977 27.8403 143.991 28.8955 144.773 30.1195C145.554 31.3434 149.598 42.351 149.762 42.5844C150.346 43.445 149.664 45.6732 149.63 45.8C149.562 46.2 148.719 50.1932 148.507 51.0763C148.359 51.6934 148.361 52.3361 148.265 52.9633C148.168 53.5906 147.95 54.2355 147.467 54.647C147.405 54.7061 147.33 54.7484 147.247 54.77C146.979 54.8223 146.797 54.5123 146.704 54.2559C146.412 53.4575 146.117 52.6436 145.602 51.9674C145.087 51.2912 144.306 50.7613 143.456 50.7638C143.386 50.5957 143.357 50.4132 143.371 50.2315C143.386 50.0498 143.443 49.8741 143.539 49.7192C143.71 49.3979 143.959 49.1257 144.147 48.8134C144.385 48.3892 144.547 47.9266 144.626 47.4466C145.045 45.2411 144.623 42.9584 143.441 41.0493C143.167 40.5966 142.835 40.1814 142.453 39.814C142.038 39.425 141.552 39.112 141.169 38.692C140.578 37.9925 140.221 37.1257 140.147 36.213C140.077 35.3064 140.101 34.3949 140.219 33.4934C140.392 31.7044 140.613 29.9125 140.869 28.1333C140.889 27.9015 140.949 27.675 141.046 27.4639C141.246 27.0907 141.585 26.9743 141.97 26.7938Z" fill="#FAE499"/>
<path d="M119.99 51.5125C119.313 50.5161 117.742 50.5252 117.794 52.1182C117.815 52.3582 117.881 52.5922 117.987 52.8087C118.377 53.7344 118.809 54.6416 119.242 55.5487L120.419 58.0182C121.015 59.2675 121.638 60.5531 122.678 61.4666C123.092 60.1266 123.38 58.751 123.54 57.3576C124.061 57.3646 124.372 58.0331 124.894 58.0401C125.454 58.0476 125.705 57.5872 125.518 57.3406C124.635 56.1749 123.591 55.1715 122.272 54.5406C120.962 53.9147 120.732 52.604 119.99 51.5125Z" fill="#FFBE9D"/>
<path d="M122.925 27.8226C123.023 28.0337 123.083 28.2602 123.102 28.492C123.358 30.2712 123.579 32.0631 123.752 33.8523C123.87 34.7539 123.894 35.6654 123.824 36.572C123.75 37.4847 123.393 38.3515 122.802 39.0509C122.419 39.4714 121.933 39.7842 121.518 40.173C121.137 40.5402 120.804 40.9554 120.53 41.408C119.348 43.3171 118.926 45.5998 119.346 47.8053C119.424 48.2853 119.586 48.7479 119.824 49.1721C120.012 49.4835 120.261 49.7557 120.432 50.0779C120.528 50.2328 120.586 50.4084 120.6 50.5901C120.615 50.7718 120.586 50.9544 120.515 51.1225C119.665 51.12 118.885 51.6497 118.37 52.3261C117.854 53.0025 117.56 53.8164 117.268 54.6146C117.174 54.871 116.991 55.1808 116.724 55.1287C116.642 55.1071 116.566 55.0648 116.505 55.0057C116.022 54.5943 115.803 53.9491 115.707 53.322C115.611 52.695 115.612 52.0523 115.464 51.435C115.253 50.553 114.409 46.5593 114.342 46.1587C114.307 46.0313 113.625 43.8037 114.209 42.9431C114.373 42.7097 118.417 31.7021 119.199 30.4782C119.981 29.2542 120.995 28.199 122.002 27.1525C122.385 27.3319 122.725 27.4483 122.925 27.8226Z" fill="#FAE499"/>
</svg>
