<svg width="150" height="170" xmlns="http://www.w3.org/2000/svg" viewBox="0 0 150 170" class="css-1j8o68f">
   <defs id="SvgjsDefs2617"></defs>
   <g id="SvgjsG2618" featurekey="41S5F6-0" transform="matrix(0.2136752136752137,0,0,0.2136752136752137,0.2136752136752137,0.2136752136752137)" fill="#5a5d9d">
      <g xmlns="http://www.w3.org/2000/svg">
         <title>background</title>
         <rect x="-1" y="-1" width="702" height="702" style="fill: none;"></rect>
      </g>
      <g xmlns="http://www.w3.org/2000/svg">
         <title>Layer 1</title>
         <g>
            <g>
               <path d="M222,158.3c-31,0.7-57.5,21-79.5,60.8c-23.1,44.8-34.5,94.6-34.3,149.4c0.4,6.6,1.1,7.2,2.2,1.9     c9.3-40.3,19-71.8,29.1-94.6c9.9-22.9,20.9-41.7,32.9-56.2c27.6-32.1,51.5-37.3,71.8-15.6c22.2,25.6,34,68.8,35.4,129.4     c-1.2,81.5-11.9,143.1-32.1,185c-25.3,51-51.3,68-77.7,50.8c-36-28.7-56-92.3-60-190.6c-1.4-3.4-2.7-0.9-3.7,7.5     c-1.9,10.2-3.2,21.4-4,33.3c-3,53.4,4.1,98.7,21.2,135.9c17.5,35.3,40.8,53.2,69.9,53.8c31.4-0.5,60-21,85.9-61.7     c25.8-42.5,42.4-94.3,49.7-155.6c2.7-65.2-6.1-120.7-26.3-166.5c-20.4-43.6-47.1-66-80-67.2"></path>
            </g>
            <g>
               <path d="M452,134.1c-16.1-26.4-46.9-39.3-92.4-38.5c-50.3,2.4-99.2,17.4-146.6,45c-5.5,3.6-5.7,4.6-0.6,2.9     c39.6-12.1,71.7-19.5,96.4-22.1c24.8-2.9,46.5-2.8,65.1,0.4c41.6,7.9,58.1,26,49.4,54.4c-11.1,32-42.6,63.8-94.4,95.4     c-71.2,39.7-129.9,61.3-176.2,64.7c-56.9,3.6-84.5-10.4-82.8-41.9C77,248.8,122,199.7,205.1,147c2.2-2.9-0.6-2.7-8.3,0.6     c-9.8,3.5-20.1,7.9-30.9,13.2c-47.7,24.1-83.5,52.9-107.1,86.3c-21.8,32.8-25.7,62-11.7,87.4c16.1,26.9,48.2,41.4,96.4,43.5     c49.7,1.1,102.9-10.4,159.6-34.8c57.8-30.3,101.5-65.6,131-106c27.6-39.5,33.6-73.8,18.2-102.9"></path>
            </g>
            <g>
               <path d="M588,321.2c14.8-27.2,10.6-60.3-12.9-99.3c-27.3-42.4-64.7-77.2-112.3-104.4c-5.9-3-6.8-2.7-2.8,0.9     c30.3,28.2,52.7,52.4,67.4,72.4c14.9,20.1,25.7,38.9,32.2,56.6c14,40,6.5,63.3-22.4,69.9c-33.3,6.4-76.5-5-129.8-34     c-69.9-41.8-118-81.9-144.2-120.2c-31.5-47.5-33.2-78.4-5.1-92.7c42.9-16.8,107.9-2.3,195.1,43.4c3.6,0.4,2.1-1.9-4.7-6.9     c-7.9-6.8-16.9-13.5-26.9-20.2c-44.7-29.3-87.5-45.8-128.3-49.6c-39.3-2.5-66.5,8.7-81.6,33.6c-15.3,27.4-11.8,62.5,10.5,105.2     c23.9,43.6,60.5,83.9,109.9,120.8c55.1,34.9,107.6,55.1,157.3,60.4c48,4.1,80.8-7.8,98.2-35.7"></path>
            </g>
            <g>
               <path d="M494,532.5c31-0.7,57.5-21,79.5-60.8c23.1-44.8,34.5-94.6,34.3-149.4c-0.4-6.6-1.1-7.2-2.2-1.9     c-9.3,40.3-19,71.8-29.1,94.6c-9.9,22.9-20.9,41.7-32.9,56.2c-27.6,32.1-51.5,37.3-71.8,15.6c-22.2-25.6-34-68.8-35.4-129.4     c1.2-81.5,11.9-143.1,32.1-185c25.3-51,51.3-68,77.7-50.8c36,28.7,56,92.3,60,190.6c1.4,3.4,2.7,0.9,3.7-7.5     c1.9-10.2,3.2-21.4,4-33.3c3-53.4-4.1-98.7-21.2-135.9c-17.5-35.3-40.8-53.2-69.9-53.8c-31.4,0.5-60,21-85.9,61.7     c-25.8,42.5-42.4,94.3-49.7,155.6c-2.7,65.2,6.1,120.7,26.3,166.5c20.4,43.6,47.1,66,80,67.2"></path>
            </g>
            <g>
               <path d="M128,369.6c-14.8,27.2-10.6,60.3,12.9,99.3c27.3,42.4,64.7,77.2,112.3,104.4c5.9,3,6.8,2.7,2.8-0.9     c-30.3-28.2-52.7-52.4-67.4-72.4c-14.9-20.1-25.7-38.9-32.2-56.6c-14-40-6.5-63.3,22.4-69.9c33.3-6.4,76.5,5,129.8,34     c69.9,41.8,118,81.9,144.2,120.2c31.5,47.5,33.2,78.4,5.1,92.7c-42.9,16.8-107.9,2.3-195.1-43.4c-3.6-0.4-2.1,1.9,4.7,6.9     c7.9,6.8,16.9,13.5,26.9,20.2c44.7,29.3,87.5,45.8,128.3,49.6c39.3,2.5,66.5-8.7,81.6-33.6c15.3-27.4,11.8-62.5-10.5-105.2     c-23.9-43.6-60.5-83.9-109.9-120.8c-55.1-34.9-107.6-55.1-157.3-60.4c-48-4.1-80.8,7.8-98.2,35.7"></path>
            </g>
            <g>
               <path d="M264,556.7c16.1,26.4,46.9,39.3,92.4,38.5c50.3-2.4,99.2-17.4,146.6-45c5.5-3.6,5.7-4.6,0.6-2.9     c-39.6,12.1-71.7,19.5-96.4,22.1c-24.8,2.9-46.5,2.8-65.1-0.4c-41.6-7.9-58.1-26-49.4-54.4c11.1-32,42.6-63.8,94.4-95.4     c71.2-39.7,129.9-61.3,176.2-64.7c56.9-3.6,84.5,10.4,82.8,41.9c-6.9,45.5-51.9,94.6-135.1,147.3c-2.2,2.9,0.6,2.7,8.3-0.6     c9.8-3.5,20.1-7.9,30.9-13.2c47.7-24.1,83.5-52.9,107.1-86.3c21.8-32.8,25.7-62,11.7-87.4c-16.1-26.9-48.2-41.4-96.3-43.5     c-49.7-1.1-102.9,10.4-159.6,34.8c-57.8,30.3-101.5,65.6-131,106c-27.6,39.5-33.6,73.8-18.2,102.9"></path>
            </g>
         </g>
      </g>
   </g>
   <g id="SvgjsG2619" featurekey="RGwKHf-0" transform="matrix(1.8039884030103428,0,0,1.8039884030103428,17.943453461426646,159.42862857770965)" fill="#545454">
      <path d="M2.78 5.859999999999999 l0 14.14 l-1.64 0 l0 -14.14 l1.64 0 z M5.3245000000000005 5.859999999999999 l0 1.46 l-1.64 0 l0 -1.46 l1.64 0 z M5.3245000000000005 9.6 l0 10.4 l-1.64 0 l0 -10.4 l1.64 0 z M11.609 9.44 c2.02 0 3.98 1.3 3.98 4.52 l0 6.04 l-1.64 0 l0 -6 c0 -2.18 -1.14 -3.12 -2.68 -3.12 c-1.86 0 -3.14 1.72 -3.4 2.98 l0 6.14 l-1.64 0 l0 -10.4 l1.64 0 l0 2.42 c0.2 -0.72 1.46 -2.58 3.74 -2.58 z M23.7935 20 l-4.48 -4.64 l-1.42 1.5 l0 3.14 l-1.64 0 l0 -3.42 l0 -10.72 l1.64 0 l0 8.98 l4.92 -5.24 l1.98 0 l-4.44 4.66 l5.38 5.74 l-1.94 0 z M30.958 12.120000000000001 c-0.4 -0.84 -1.06 -1.36 -2.02 -1.36 c-1 0 -1.68 0.6 -1.68 1.4 c0 0.72 0.38 1.24 1.42 1.62 l1.04 0.36 c1.74 0.62 3.02 1.26 3.02 3.08 c0 1.98 -1.92 3 -3.7 3 c-1.8 0 -3.4 -1.04 -3.78 -2.78 l1.32 -0.4 c0.32 1.14 1.26 1.84 2.46 1.84 c1.04 0 2.08 -0.6 2.08 -1.64 c0 -0.9 -0.62 -1.38 -1.7 -1.76 l-1.16 -0.42 c-1.82 -0.64 -2.6 -1.66 -2.6 -2.9 c0 -1.62 1.44 -2.74 3.24 -2.74 c1.68 0 2.86 0.92 3.42 2.3 z M38.4825 9.42 c2.36 0 5.22 1.8 5.22 5.38 c0 3.62 -2.86 5.4 -5.22 5.4 c-1.84 0 -3.26 -1 -3.74 -2.2 l0 5.8 l-1.64 0 l0 -6.52 l0 -7.68 l1.64 0 l0 1.96 c0.48 -1.12 1.9 -2.14 3.74 -2.14 z M38.302499999999995 18.74 c1.76 0 3.8 -1.3 3.8 -3.94 c0 -2.62 -2.04 -3.92 -3.8 -3.92 c-1.78 0 -3.64 1.26 -3.64 3.92 c0 2.68 1.86 3.94 3.64 3.94 z M45.807 5.859999999999999 l0 14.14 l-1.64 0 l0 -14.14 l1.64 0 z M51.591499999999996 9.42 c2.36 0 5.34 1.8 5.34 5.4 s-2.98 5.38 -5.34 5.38 s-5.32 -1.78 -5.32 -5.38 s2.96 -5.4 5.32 -5.4 z M51.591499999999996 10.88 c-1.68 0 -3.72 1.3 -3.72 3.94 c0 2.62 2.04 3.92 3.72 3.92 c1.7 0 3.74 -1.3 3.74 -3.92 c0 -2.64 -2.04 -3.94 -3.74 -3.94 z M62.116 10.98 l-2.2 0 l0 6.7 c0 0.62 0.24 1 0.84 1 c0.52 0 0.9 -0.12 1.34 -0.32 l0 1.4 c-0.44 0.22 -0.96 0.36 -1.78 0.36 c-1.06 0 -2.02 -0.48 -2.02 -2.3 l0 -6.84 l-1.44 0 l0 -1.38 l1.44 0 l0 -2.44 l1.62 0 l0 2.44 l2.2 0 l0 1.38 z"></path>
   </g>
</svg>
