<svg width="61" height="34" viewBox="0 0 61 34" fill="none" xmlns="http://www.w3.org/2000/svg">
<path d="M27.8516 18.7401H32.8687V23.7984H27.8516V18.7401Z" fill="white" stroke="#1A1A1A" stroke-width="0.5"/>
<path d="M0.25 27.9932H5.26714V33.0514H0.25V27.9932Z" fill="white" stroke="#1A1A1A" stroke-width="0.5"/>
<path d="M9.44531 18.7401H14.4784V23.7984H9.44531V18.7401Z" fill="white" stroke="#1A1A1A" stroke-width="0.5"/>
<path d="M18.6406 9.50305H23.6738V14.5453H18.6406V9.50305Z" fill="white" stroke="#1A1A1A" stroke-width="0.5"/>
<path d="M27.8516 0.25H32.8687V5.30826H27.8516V0.25Z" fill="white" stroke="#1A1A1A" stroke-width="0.5"/>
<path d="M18.6406 18.7401H23.6738V23.7984H18.6406V18.7401Z" fill="white" stroke="#1A1A1A" stroke-width="0.5"/>
<path d="M9.44531 27.993H14.4784V33.0513H9.44531V27.993Z" fill="white" stroke="#1A1A1A" stroke-width="0.5"/>
<path d="M18.6406 27.993H23.6738V33.0513H18.6406V27.993Z" fill="white" stroke="#1A1A1A" stroke-width="0.5"/>
<path d="M27.8516 9.50305H32.8687V14.5453H27.8516V9.50305Z" fill="white" stroke="#1A1A1A" stroke-width="0.5"/>
<path d="M27.6016 27.743H33.1187V33.3013H27.6016V27.743Z" fill="#19DEA5"/>
<path d="M36.7969 18.4901H42.33V24.0484H36.7969V18.4901Z" fill="#19DEA5"/>
<path d="M46.0117 9.25305H51.5449V14.7953H46.0117V9.25305Z" fill="#19DEA5"/>
<path d="M55.2188 0H60.7519V5.55826H55.2188V0Z" fill="#19DEA5"/>
<path d="M55.2188 9.25305H60.7519V14.7953H55.2188V9.25305Z" fill="#19DEA5"/>
<path d="M46.0117 18.4901H51.5449V24.0484H46.0117V18.4901Z" fill="#19DEA5"/>
<path d="M55.2188 18.4901H60.7519V24.0484H55.2188V18.4901Z" fill="#19DEA5"/>
<path d="M36.7969 27.743H42.33V33.3013H36.7969V27.743Z" fill="#19DEA5"/>
<path d="M46.0117 27.743H51.5449V33.3013H46.0117V27.743Z" fill="#19DEA5"/>
<path d="M55.2188 27.743H60.7519V33.3013H55.2188V27.743Z" fill="#19DEA5"/>
</svg>
