<svg width="134" height="138" viewBox="0 0 134 138" fill="none" xmlns="http://www.w3.org/2000/svg">
<path d="M50.6857 101.371C78.6786 101.371 101.371 78.6786 101.371 50.6857C101.371 22.6928 78.6786 0 50.6857 0C22.6928 0 0 22.6928 0 50.6857C0 78.6786 22.6928 101.371 50.6857 101.371Z" fill="#3D71F5"/>
<path d="M55.0199 70.847C59.4178 68.4297 64.8914 68.9148 69.6297 70.5675C74.3681 72.2201 78.6622 74.9275 83.2637 76.9301C97.3252 83.0496 114.273 82.0629 127.529 74.3528C128.783 77.2691 127.438 80.6047 125.961 83.4144C124.483 86.2241 122.799 89.2692 123.408 92.3847C124.186 96.3715 128.366 98.7617 130.06 102.454C131.667 105.959 130.805 110.075 129.571 113.728C128.338 117.381 126.737 121.062 126.947 124.913C127.156 128.763 129.954 132.834 133.81 132.838C128.095 133.726 122.268 134.614 116.557 133.704C110.846 132.794 105.165 129.774 102.514 124.634C101.188 122.065 100.677 119.112 99.1551 116.655C96.5625 112.469 91.5869 110.501 86.8922 109.017C82.1976 107.534 77.1736 106.105 73.8682 102.456C70.7187 98.9795 69.7213 94.1363 68.0526 89.7521C65.2424 82.4127 60.3614 76.0473 54.0024 71.4291" fill="#BDD1F9"/>
<path d="M60.1157 52.6313C58.5712 51.9134 56.6765 51.6776 55.1054 52.345C53.5344 53.0124 52.4637 54.7229 52.9716 56.2369C53.202 56.9232 53.7265 57.5983 53.5222 58.2915C53.3649 58.8252 52.8163 59.1773 52.2772 59.4279C51.7382 59.6785 51.1489 59.8891 50.7593 60.3116C50.3697 60.734 50.2883 61.4612 50.7752 61.7888C50.9355 61.8976 51.1361 61.9481 51.2916 62.0616C51.4241 62.1693 51.5197 62.3157 51.5651 62.4803C51.6105 62.645 51.6034 62.8197 51.5448 62.9801C51.4152 63.3029 51.2009 63.5848 50.9246 63.796C50.3719 64.2727 49.6412 64.8185 49.8132 65.4948C49.8769 65.6757 49.9834 65.8385 50.1235 65.9695C50.2636 66.1005 50.4333 66.1957 50.6181 66.247C51.0016 66.3576 51.3996 66.4101 51.7987 66.4028L68.1064 66.9166C68.6446 66.957 69.1858 66.9268 69.7162 66.8267C69.9739 66.7798 70.2193 66.6803 70.4368 66.5343C70.6544 66.3883 70.8395 66.1991 70.9807 65.9784C71.2931 65.4004 71.0879 64.6882 70.7023 64.1485C70.3166 63.6088 69.7708 63.1828 69.3198 62.6873C68.8689 62.1917 68.4999 61.5728 68.5802 60.9324C68.6439 60.4197 68.982 59.9763 69.2248 59.5104C69.4675 59.0444 69.6085 58.4623 69.2941 58.0335C68.851 57.4294 67.7873 57.484 67.2835 56.9213C66.9032 56.4964 66.9767 55.8852 66.9389 55.3374C66.848 54.0198 65.9358 52.7757 64.6374 52.1977C63.9771 51.9143 63.2589 51.792 62.542 51.8408C61.8251 51.8896 61.1302 52.1082 60.5144 52.4786L60.1157 52.6313Z" fill="#2F2E41"/>
<path d="M49.8104 135.329L47.2563 134.561L49.0008 124.344L52.7704 125.477L49.8104 135.329Z" fill="#FFBE9D"/>
<path d="M49.7187 138L41.4824 135.526L41.5137 135.421C41.6402 135.001 41.8483 134.609 42.1263 134.268C42.4042 133.928 42.7465 133.645 43.1336 133.437C43.5207 133.229 43.945 133.099 44.3823 133.054C44.8197 133.01 45.2614 133.052 45.6824 133.179V133.179L50.7124 134.69L49.7187 138Z" fill="black"/>
<path d="M73.9127 135.416H71.2457L69.9771 125.129H73.9131L73.9127 135.416Z" fill="#FFBE9D"/>
<path d="M74.5925 138H65.9932V137.891C65.9931 137.452 66.0796 137.016 66.2478 136.61C66.416 136.204 66.6625 135.835 66.9733 135.524C67.2841 135.213 67.6531 134.967 68.0592 134.799C68.4653 134.63 68.9006 134.544 69.3402 134.544H74.5925V138Z" fill="black"/>
<path d="M70.2106 127.634C69.9779 127.634 69.7528 127.551 69.5758 127.4C69.3988 127.249 69.2813 127.04 69.2445 126.81L65.2853 102.108C65.2591 101.945 65.1802 101.794 65.0607 101.679C64.9411 101.565 64.7874 101.492 64.6228 101.473C64.4582 101.453 64.2918 101.488 64.1488 101.572C64.0058 101.655 63.8941 101.784 63.8305 101.937L53.5704 126.635C53.4749 126.863 53.2969 127.046 53.0719 127.149C52.847 127.251 52.5916 127.265 52.3568 127.188L48.6513 125.953C48.4206 125.876 48.2265 125.717 48.1072 125.505C47.9879 125.294 47.9518 125.045 48.0061 124.808L56.4136 87.6051C56.4548 87.4259 56.5453 87.2618 56.6749 87.1313C56.8046 87.0009 56.9682 86.9094 57.1472 86.8672L68.4224 84.2499C68.561 84.2184 68.7048 84.2171 68.8439 84.2459C68.9831 84.2748 69.1144 84.3333 69.229 84.4173C76.6535 89.8122 76.0264 107.437 74.6426 126.576C74.6254 126.815 74.5208 127.04 74.3485 127.208C74.1763 127.375 73.9485 127.473 73.7085 127.484L70.2536 127.634C70.2393 127.634 70.2249 127.634 70.2106 127.634Z" fill="#6660BF"/>
<path d="M60.7193 66.7902C63.6701 66.7902 66.0622 64.3981 66.0622 61.4473C66.0622 58.4965 63.6701 56.1044 60.7193 56.1044C57.7686 56.1044 55.3765 58.4965 55.3765 61.4473C55.3765 64.3981 57.7686 66.7902 60.7193 66.7902Z" fill="#FFBE9D"/>
<path d="M60.9496 89.1389C59.6671 89.1307 58.4023 88.8383 57.2463 88.2829L57.2065 88.2644L57.1906 88.2235L52.3985 75.8075L52.3074 73.6502C52.2768 72.9288 52.3977 72.2089 52.6622 71.537C52.9267 70.8652 53.329 70.2561 53.8431 69.7491C54.3573 69.2421 54.9719 68.8484 55.6474 68.5933C56.3229 68.3383 57.0444 68.2275 57.7653 68.2681L62.853 68.5546C64.1672 68.6293 65.4036 69.2021 66.3104 70.1563C67.2171 71.1104 67.7262 72.3743 67.7339 73.6906C67.8659 73.9445 68.8044 75.9295 66.9653 77.7944C66.8966 78.2191 66.2533 82.634 68.681 85.0616L68.7493 85.1297L68.6897 85.2057C68.651 85.2553 65.5333 89.1383 60.9496 89.1389Z" fill="#FAE499"/>
<path d="M68.0943 90.0755C68.395 89.9664 68.668 89.7928 68.8943 89.5669C69.1206 89.3409 69.2946 89.0681 69.404 88.7676C69.5135 88.4671 69.5557 88.1463 69.5278 87.8278C69.4998 87.5092 69.4023 87.2006 69.2422 86.9238L74.3237 81.041L70.318 80.5189L66.1067 86.1853C65.6594 86.485 65.3377 86.9385 65.2024 87.4597C65.0671 87.9808 65.1277 88.5335 65.3727 89.013C65.6177 89.4924 66.0301 89.8654 66.5317 90.0611C67.0334 90.2568 67.5893 90.2617 68.0943 90.0748V90.0755Z" fill="#FFBE9D"/>
<path d="M71.271 85.5348C71.0801 85.5348 70.8935 85.4788 70.7341 85.3739L68.2207 83.7254C68.0094 83.5874 67.8596 83.373 67.8029 83.1271C67.7461 82.8812 67.7867 82.6229 67.9161 82.4063L69.7356 79.3495C69.834 79.1841 69.8964 78.9998 69.9186 78.8086C69.9407 78.6174 69.9222 78.4237 69.8642 78.2402C69.8061 78.0567 69.71 77.8875 69.5819 77.7438C69.4539 77.6001 69.2969 77.4851 69.1213 77.4064L63.8943 75.0631C63.2515 74.7713 62.7268 74.2699 62.4062 73.6409C62.0856 73.0119 61.9881 72.2927 62.1297 71.6011V71.6011C62.2274 71.1347 62.4314 70.6971 62.7258 70.3224C63.0202 69.9477 63.3971 69.646 63.8272 69.4407C64.2572 69.2354 64.7288 69.132 65.2053 69.1387C65.6817 69.1454 66.1503 69.2619 66.5744 69.4792L74.504 73.5426C75.0388 73.8168 75.5081 74.2034 75.8797 74.6758C76.2513 75.1482 76.5164 75.6954 76.6569 76.2798C76.7973 76.8642 76.8099 77.4721 76.6936 78.0618C76.5773 78.6515 76.335 79.2091 75.9832 79.6964L72.0632 85.1283C71.9727 85.2542 71.8535 85.3568 71.7155 85.4275C71.5774 85.4982 71.4245 85.535 71.2694 85.5348H71.271Z" fill="#FAE499"/>
<path d="M55.2528 60.6877C56.94 60.5521 58.3418 58.8667 58.1656 57.183C58.1458 57.8769 58.3817 58.5539 58.8286 59.0852C59.2755 59.6165 59.902 59.965 60.5891 60.0644C61.3631 60.1497 62.2115 59.9156 62.8852 60.3059C63.6314 60.7384 63.8702 61.7886 64.6472 62.1621C65.3984 62.523 66.3523 62.0316 66.7232 61.2848C67.0941 60.538 67.0031 59.6424 66.7573 58.8462C66.4066 57.7108 65.768 56.6856 64.9037 55.8701C64.0394 55.0546 62.9787 54.4767 61.8248 54.1925C60.671 53.9084 59.4632 53.9277 58.3191 54.2486C57.1749 54.5695 56.1332 55.181 55.2954 56.0237C54.586 56.7372 54.0226 57.6467 53.9312 58.6489C53.8399 59.6511 54.3048 60.7384 55.2047 61.1887L55.2528 60.6877Z" fill="#2F2E41"/>
<path d="M42.8223 45.8878C43.1036 46.0397 43.3482 46.2513 43.5389 46.5079C43.7296 46.7645 43.8617 47.0597 43.926 47.3728C43.9903 47.686 43.9852 48.0094 43.911 48.3203C43.8368 48.6313 43.6954 48.9222 43.4967 49.1726L47.6644 55.7345L43.6255 55.6654L40.2869 49.4438C39.8892 49.0816 39.6379 48.5862 39.5808 48.0513C39.5237 47.5163 39.6646 46.979 39.9769 46.5409C40.2892 46.1029 40.7513 45.7945 41.2756 45.6742C41.8 45.5538 42.3502 45.6298 42.8223 45.8878V45.8878Z" fill="#FFBE9D"/>
<path d="M46.1822 50.5604L51.5496 63.2427L57.1771 72.7847C57.4146 73.1875 57.5575 73.639 57.5949 74.1051C57.6324 74.5712 57.5635 75.0398 57.3933 75.4754C57.2232 75.911 56.9563 76.3022 56.6129 76.6195C56.2694 76.9369 55.8583 77.172 55.4107 77.3072V77.3072C54.7007 77.518 53.9387 77.4678 53.2625 77.1658C52.5862 76.8639 52.0403 76.33 51.7232 75.6607L40.8774 52.4865C40.8185 52.3605 40.7871 52.2235 40.7852 52.0846C40.7834 51.9456 40.8112 51.8078 40.8668 51.6804C40.9223 51.553 41.0044 51.4389 41.1075 51.3456C41.2106 51.2524 41.3324 51.1822 41.4647 51.1397L44.9814 50.01C45.048 49.9884 45.1168 49.9738 45.1865 49.9665C45.3942 49.9456 45.6031 49.9919 45.7825 50.0988C45.9618 50.2056 46.102 50.3673 46.1824 50.56L46.1822 50.5604Z" fill="#FAE499"/>
<path d="M61.8784 23.5399V41.3778C61.8784 41.4355 61.8555 41.4908 61.8147 41.5316C61.7739 41.5724 61.7186 41.5953 61.6609 41.5953C61.6032 41.5953 61.5479 41.5724 61.5071 41.5316C61.4663 41.4908 61.4434 41.4355 61.4434 41.3778V23.5399C61.4434 23.4822 61.4663 23.4269 61.5071 23.3861C61.5479 23.3453 61.6032 23.3224 61.6609 23.3224C61.7186 23.3224 61.7739 23.3453 61.8147 23.3861C61.8555 23.4269 61.8784 23.4822 61.8784 23.5399Z" fill="white"/>
<path d="M80.7656 38.6726L74.6128 44.8254C74.5718 44.865 74.5168 44.887 74.4598 44.8865C74.4027 44.886 74.3482 44.8631 74.3079 44.8228C74.2675 44.7824 74.2446 44.7279 74.2441 44.6708C74.2437 44.6138 74.2656 44.5588 74.3052 44.5178L80.458 38.3651C80.478 38.3443 80.502 38.3277 80.5286 38.3163C80.5551 38.3049 80.5837 38.2989 80.6125 38.2987C80.6414 38.2984 80.6701 38.3039 80.6968 38.3148C80.7236 38.3258 80.7478 38.3419 80.7683 38.3624C80.7887 38.3828 80.8048 38.4071 80.8158 38.4338C80.8267 38.4605 80.8322 38.4892 80.832 38.5181C80.8317 38.547 80.8257 38.5755 80.8143 38.602C80.8029 38.6286 80.7863 38.6526 80.7656 38.6726Z" fill="white"/>
<path d="M42.5547 38.6727L48.7075 44.8257C48.7485 44.8653 48.8035 44.8872 48.8605 44.8867C48.9175 44.8862 48.9721 44.8634 49.0124 44.823C49.0528 44.7827 49.0756 44.7281 49.0761 44.6711C49.0766 44.6141 49.0547 44.5591 49.0151 44.5181L42.8623 38.3653C42.8213 38.3257 42.7663 38.3038 42.7093 38.3043C42.6523 38.3048 42.5977 38.3276 42.5574 38.368C42.517 38.4083 42.4942 38.4629 42.4937 38.5199C42.4932 38.5769 42.5151 38.6319 42.5547 38.6729V38.6727Z" fill="white"/>
</svg>
