<svg width="124" height="121" viewBox="0 0 124 121" fill="none" xmlns="http://www.w3.org/2000/svg">
<path d="M78.0567 34.1601C85.3289 34.1601 91.2242 28.3007 91.2242 21.0728C91.2242 13.8448 85.3289 7.98541 78.0567 7.98541C70.7845 7.98541 64.8892 13.8448 64.8892 21.0728C64.8892 28.3007 70.7845 34.1601 78.0567 34.1601Z" fill="#FFBE9D"/>
<path d="M68.2286 27.6163C68.2286 27.6163 70.7094 46.2041 66.8927 48.2904C63.076 50.3767 89.602 50.5664 89.602 50.5664C89.602 50.5664 83.6861 34.4441 86.358 29.5128L68.2286 27.6163Z" fill="#FFBE9D"/>
<path d="M108.972 50.6605L106.765 60.6437L102.101 81.7679L101.962 82.9248L100.352 96.318L99.2819 105.215L98.5639 111.191C94.1984 113.421 91.0351 114.96 91.0351 114.96C91.0351 114.96 90.7627 113.604 90.3243 111.869C87.2604 112.782 81.5915 114.297 76.7873 114.599C78.5368 116.537 79.3406 118.358 78.2502 119.702C74.9592 123.752 61.3718 115.267 56.6195 112.103C56.5089 112.86 56.467 113.626 56.4943 114.391L52.8575 111.612L53.2174 105.215L53.8244 94.3929L54.5872 80.8209C54.3468 80.2397 54.1453 79.6434 53.9841 79.0358C52.8703 75.099 51.5185 67.2381 50.4823 60.646C49.648 55.3407 49.0211 50.8576 48.8887 49.9037C48.8708 49.7792 48.8618 49.715 48.8618 49.715L68.9937 40.8734C70.4244 44.1713 77.1061 45.1624 77.1061 45.1624C82.6408 44.7833 86.9795 41.8825 86.9795 41.8825L108.972 50.6605Z" fill="#FAE499"/>
<path d="M92.5607 111.167C92.5607 111.167 91.7084 111.457 90.3225 111.868C87.2587 112.781 81.5897 114.296 76.7855 114.598C72.6492 114.862 69.1538 114.228 68.5146 111.546C68.2407 110.393 68.6292 109.444 69.4762 108.665C72.0052 106.335 78.6084 105.501 83.8458 105.214C85.3243 105.134 86.693 105.097 87.8318 105.083C89.7657 105.058 91.0334 105.097 91.0334 105.097L91.0637 105.214L92.5607 111.167Z" fill="#A0616A"/>
<path d="M67.1026 8.69311L64.6405 7.71356C64.6405 7.71356 69.7883 2.0807 76.9505 2.57028L74.9361 0.366017C74.9361 0.366017 79.8601 -1.59326 84.3365 3.54983C86.6905 6.25334 89.4123 9.43134 91.1095 13.0113H93.7461L92.6456 15.4196L96.4975 17.8279L92.5442 17.3953C92.7798 18.7141 92.816 20.0605 92.6516 21.3899C92.482 22.7197 91.7993 23.9319 90.7474 24.7709V24.7709C90.7474 24.7709 87.6941 18.4893 87.6941 17.5096V19.9586C87.6941 19.9586 85.2322 17.7544 85.2322 16.2849L83.8898 17.9992L83.2185 15.3051L74.9363 17.9997L76.2786 15.7955L71.1308 16.5302L73.1453 13.8362C73.1453 13.8362 67.326 17.02 67.1023 19.7142C66.8785 22.4085 65.1751 24.961 65.1751 24.961C65.1751 24.961 60.6118 12.3669 67.1026 8.69311Z" fill="black"/>
<path d="M123.284 96.5611C121.943 98.0062 118.619 100.183 114.59 102.539C113.093 103.415 111.496 104.318 109.869 105.214C105.985 107.355 101.918 109.476 98.5626 111.19C94.1971 113.42 91.0338 114.96 91.0338 114.96C91.0338 114.96 90.7615 113.604 90.323 111.868C89.7356 109.546 88.8511 106.544 87.9289 105.214C87.8967 105.168 87.8646 105.125 87.8317 105.082C87.563 104.732 87.2926 104.527 87.0259 104.527L100.352 96.3173L106.11 92.7686L101.961 82.9248L96.7576 70.5773L99.8983 60.6447L103.055 50.6606H108.971C108.971 50.6606 110.93 54.9106 113.435 60.8369C113.809 61.7233 114.196 62.6469 114.59 63.6008C119.744 76.0589 126.168 93.4554 123.284 96.5611Z" fill="#FAE499"/>
<path d="M78.2479 119.701C74.9568 123.751 61.3694 115.266 56.6172 112.102C55.5822 111.413 54.9663 110.977 54.9663 110.977L59.3139 105.215L60.6909 103.391C60.6909 103.391 61.9229 104.041 63.7438 105.098C63.8102 105.136 63.8763 105.175 63.9444 105.215C65.5147 106.132 67.4862 107.329 69.4756 108.666C72.2206 110.511 74.9961 112.617 76.7849 114.599C78.5336 116.536 79.3385 118.357 78.2479 119.701Z" fill="#A0616A"/>
<path d="M63.7439 105.096C63.258 105.095 62.7728 105.134 62.2936 105.214C58.1769 105.917 56.9632 109.62 56.6173 112.101C56.5067 112.859 56.4647 113.625 56.492 114.39L52.8552 111.61L51.5302 110.598C48.3411 109.492 45.4994 107.529 43.0356 105.214C40.8981 103.17 38.9807 100.91 37.3145 98.4707C35.6549 96.0666 34.1754 93.5445 32.8881 90.9248C32.5287 90.1938 32.3355 89.3932 32.322 88.5798C32.3086 87.7663 32.4753 86.9598 32.8103 86.2175L37.3137 76.2422L43.896 61.6632C43.9444 61.3162 43.9975 60.9768 44.0554 60.6451C45.3607 53.2059 48.8578 49.9028 48.8578 49.9028H51.5294L53.3165 60.6451L55.5368 73.9912L53.9805 79.0349L50.3859 90.6827L53.8221 94.3917L63.7439 105.096Z" fill="#FAE499"/>
<path d="M118.834 117.53V118.61C118.835 118.906 118.78 119.2 118.671 119.477C118.623 119.6 118.565 119.719 118.497 119.832C118.284 120.189 117.981 120.483 117.619 120.688C117.256 120.893 116.846 121 116.429 121H36.4694C36.0524 121 35.6426 120.893 35.28 120.688C34.9174 120.483 34.6146 120.189 34.4012 119.832C34.3337 119.719 34.2756 119.6 34.2275 119.477C34.1192 119.2 34.0639 118.906 34.0645 118.61V117.53C34.0644 117.216 34.1265 116.905 34.2474 116.615C34.3682 116.325 34.5453 116.061 34.7686 115.839C34.9919 115.617 35.2571 115.441 35.5488 115.321C35.8406 115.201 36.1534 115.139 36.4692 115.14H41.0785V114.637C41.0785 114.61 41.089 114.585 41.1078 114.566C41.1266 114.548 41.1521 114.537 41.1787 114.537H43.5834C43.6099 114.537 43.6354 114.548 43.6542 114.566C43.673 114.585 43.6836 114.61 43.6836 114.637V115.14H45.1858V114.637C45.1858 114.61 45.1964 114.585 45.2152 114.566C45.234 114.548 45.2594 114.537 45.286 114.537H47.6907C47.7039 114.537 47.717 114.54 47.7291 114.545C47.7413 114.55 47.7524 114.557 47.7617 114.566C47.771 114.576 47.7784 114.587 47.7835 114.599C47.7885 114.611 47.7911 114.624 47.7911 114.637V115.14H49.2953V114.637C49.2953 114.61 49.3059 114.585 49.3247 114.566C49.3434 114.548 49.3689 114.537 49.3955 114.537H51.8016C51.8282 114.537 51.8537 114.548 51.8724 114.566C51.8912 114.585 51.9018 114.61 51.9018 114.637V115.14H53.404V114.637C53.404 114.61 53.4146 114.585 53.4334 114.566C53.4522 114.548 53.4777 114.537 53.5042 114.537H55.9084C55.9215 114.537 55.9346 114.54 55.9468 114.545C55.9589 114.55 55.97 114.557 55.9793 114.566C55.9887 114.576 55.9961 114.587 56.0011 114.599C56.0062 114.611 56.0088 114.624 56.0088 114.637V115.14H57.511V114.637C57.511 114.61 57.5216 114.585 57.5403 114.566C57.5591 114.548 57.5846 114.537 57.6112 114.537H60.0159C60.0425 114.537 60.068 114.548 60.0868 114.566C60.1056 114.585 60.1161 114.61 60.1161 114.637V115.14H61.6203V114.637C61.6203 114.61 61.6309 114.585 61.6497 114.566C61.6684 114.548 61.6939 114.537 61.7205 114.537H64.1252C64.1384 114.537 64.1514 114.54 64.1636 114.545C64.1758 114.55 64.1869 114.557 64.1962 114.566C64.2055 114.576 64.2129 114.587 64.218 114.599C64.223 114.611 64.2256 114.624 64.2256 114.637V115.14H65.7279V114.637C65.7279 114.61 65.7384 114.585 65.7572 114.566C65.776 114.548 65.8015 114.537 65.828 114.537H84.6653C84.6785 114.537 84.6915 114.54 84.7037 114.545C84.7159 114.55 84.727 114.557 84.7363 114.566C84.7456 114.576 84.753 114.587 84.7581 114.599C84.7631 114.611 84.7657 114.624 84.7657 114.637V115.14H86.2699V114.637C86.2699 114.61 86.2805 114.585 86.2992 114.566C86.318 114.548 86.3435 114.537 86.3701 114.537H88.7748C88.8013 114.538 88.8266 114.548 88.8453 114.567C88.864 114.585 88.8747 114.61 88.875 114.637V115.14H90.3773V114.637C90.3773 114.61 90.3878 114.585 90.4066 114.566C90.4254 114.548 90.4509 114.537 90.4774 114.537H92.8822C92.9087 114.537 92.9342 114.548 92.953 114.566C92.9718 114.585 92.9824 114.61 92.9824 114.637V115.14H94.4846V114.637C94.4846 114.624 94.4872 114.611 94.4923 114.599C94.4973 114.587 94.5047 114.576 94.514 114.566C94.5233 114.557 94.5344 114.55 94.5466 114.545C94.5588 114.54 94.5718 114.537 94.585 114.537H96.9897C97.0163 114.537 97.0418 114.548 97.0606 114.566C97.0794 114.585 97.0899 114.61 97.0899 114.637V115.14H98.5941V114.637C98.5941 114.61 98.6047 114.585 98.6235 114.566C98.6422 114.548 98.6677 114.537 98.6943 114.537H101.099C101.125 114.538 101.15 114.548 101.169 114.567C101.187 114.586 101.198 114.611 101.197 114.637V115.14H102.702V114.637C102.702 114.624 102.704 114.611 102.709 114.599C102.714 114.587 102.722 114.576 102.731 114.566C102.74 114.557 102.751 114.55 102.764 114.545C102.776 114.54 102.789 114.537 102.802 114.537H105.207C105.233 114.537 105.259 114.548 105.278 114.566C105.296 114.585 105.307 114.61 105.307 114.637V115.14H106.809V114.637C106.809 114.61 106.82 114.585 106.839 114.566C106.857 114.548 106.883 114.537 106.909 114.537H109.314C109.341 114.537 109.366 114.548 109.385 114.566C109.404 114.585 109.414 114.61 109.414 114.637V115.14H116.428C116.744 115.139 117.057 115.201 117.348 115.321C117.64 115.441 117.905 115.617 118.129 115.839C118.352 116.061 118.529 116.325 118.65 116.615C118.771 116.905 118.833 117.216 118.833 117.53H118.834Z" fill="#678EF2"/>
<path d="M112.396 72.0348H82.5921V71.4242H69.0781V72.0348H39.1518C38.6171 72.0348 38.1043 72.2459 37.7262 72.6217C37.3481 72.9975 37.1357 73.5071 37.1357 74.0386V114.6C37.1357 114.863 37.1879 115.124 37.2892 115.367C37.3905 115.61 37.539 115.831 37.7262 116.017C37.9134 116.203 38.1357 116.351 38.3803 116.451C38.6249 116.552 38.887 116.604 39.1518 116.604H112.397C112.931 116.604 113.444 116.392 113.822 116.017C114.2 115.641 114.412 115.131 114.412 114.6V74.0386C114.412 73.5071 114.2 72.9975 113.821 72.6217C113.443 72.2459 112.931 72.0348 112.396 72.0348V72.0348Z" fill="#3D71F5"/>
<path d="M75.8326 90.6453C78.3049 90.6453 80.3091 88.6533 80.3091 86.196C80.3091 83.7387 78.3049 81.7467 75.8326 81.7467C73.3602 81.7467 71.356 83.7387 71.356 86.196C71.356 88.6533 73.3602 90.6453 75.8326 90.6453Z" stroke="#D0CDE1" stroke-width="2" stroke-miterlimit="10"/>
<path d="M74.3999 92.2469C76.8723 92.2469 78.8765 90.2549 78.8765 87.7976C78.8765 85.3403 76.8723 83.3483 74.3999 83.3483C71.9276 83.3483 69.9233 85.3403 69.9233 87.7976C69.9233 90.2549 71.9276 92.2469 74.3999 92.2469Z" fill="#D0CDE1"/>
<path d="M16.9358 40.9535C24.782 40.9535 31.1426 34.6317 31.1426 26.8333C31.1426 19.0349 24.782 12.713 16.9358 12.713C9.0896 12.713 2.729 19.0349 2.729 26.8333C2.729 34.6317 9.0896 40.9535 16.9358 40.9535Z" fill="#BDD1F9"/>
<path d="M21.8863 10.0536C20.5999 9.89099 19.298 9.89099 18.0116 10.0536C15.1459 10.4276 12.4482 11.6108 10.2387 13.4629C8.02928 15.315 6.40075 17.7582 5.54638 20.5026C5.1577 21.7531 4.93751 23.0493 4.89156 24.3573C4.88514 24.5393 4.88086 24.7232 4.88086 24.9072C4.88472 28.8781 6.47349 32.6852 9.29849 35.493C12.1235 38.3008 15.9539 39.88 19.9491 39.8839C20.2699 39.8839 20.5911 39.8732 20.907 39.8539C21.6497 39.8076 22.3879 39.706 23.1154 39.5501C26.5896 38.8076 29.6879 36.8687 31.8633 34.076C34.0387 31.2832 35.1511 27.8162 35.004 24.2873C34.857 20.7584 33.4599 17.3947 31.0597 14.7903C28.6594 12.1858 25.4103 10.5082 21.8863 10.0538V10.0536ZM24.6651 38.6814H24.663C23.4495 39.0929 22.1864 39.3425 20.9068 39.4237C20.5903 39.4451 20.2697 39.4558 19.9489 39.4558C16.0683 39.4511 12.348 37.9168 9.60397 35.1895C6.85997 32.4622 5.31631 28.7646 5.31157 24.9076C5.31157 24.7236 5.31585 24.5403 5.32227 24.3577C5.42335 21.7086 6.2508 19.1373 7.71522 16.9216C9.17964 14.7059 11.2254 12.93 13.6314 11.7858C16.0374 10.6416 18.7123 10.1725 21.367 10.4293C24.0217 10.6861 26.5554 11.659 28.6942 13.2429C30.8331 14.8267 32.4959 16.9614 33.503 19.4162C34.51 21.871 34.8231 24.5526 34.4083 27.1714C33.9935 29.7901 32.8667 32.2465 31.1495 34.275C29.4324 36.3036 27.1902 37.8272 24.6651 38.6814V38.6814Z" fill="#BDD1F9"/>
<path d="M20.1644 11.2153H19.7339V14.2106H20.1644V11.2153Z" fill="black"/>
<path d="M10.3606 15.0745L10.0562 15.3771L12.1871 17.4951L12.4915 17.1925L10.3606 15.0745Z" fill="black"/>
<path d="M6.17285 24.6937V25.1216H9.18649V24.6937H6.17285Z" fill="black"/>
<path d="M10.0559 34.4382L10.3604 34.7407L12.4913 32.6227L12.1869 32.3202L10.0559 34.4382Z" fill="black"/>
<path d="M27.4075 17.1919L27.7119 17.4945L29.8429 15.3765L29.5385 15.0739L27.4075 17.1919Z" fill="black"/>
<path d="M30.7119 24.6937V25.1216H33.7256V24.6937H30.7119Z" fill="black"/>
<path d="M27.7121 32.3204L27.4077 32.6229L29.5387 34.7409L29.8431 34.4383L27.7121 32.3204Z" fill="black"/>
<path d="M20.1644 35.6049H19.7339V38.6001H20.1644V35.6049Z" fill="black"/>
<path d="M20.5953 24.0518C20.409 23.9129 20.1824 23.8378 19.9495 23.8378C19.7166 23.8378 19.49 23.9129 19.3037 24.0518C19.1762 24.1481 19.0712 24.2708 18.9959 24.4113C18.9006 24.5922 18.8593 24.7965 18.8771 25C18.8948 25.2035 18.9708 25.3977 19.096 25.5597C19.2213 25.7216 19.3905 25.8446 19.5838 25.9139C19.7772 25.9833 19.9864 25.9962 20.1869 25.9512C20.3873 25.9061 20.5706 25.805 20.7151 25.6597C20.8595 25.5144 20.9591 25.331 21.0021 25.1313C21.045 24.9315 21.0295 24.7237 20.9575 24.5324C20.8854 24.3411 20.7597 24.1744 20.5953 24.0518V24.0518ZM19.9496 25.5493C19.7785 25.5488 19.6146 25.4811 19.4936 25.3608C19.3726 25.2406 19.3044 25.0776 19.3039 24.9076C19.3047 24.7778 19.3444 24.6512 19.4179 24.5439C19.481 24.4531 19.5665 24.38 19.6663 24.3317C19.7661 24.2834 19.8768 24.2615 19.9876 24.2682C20.0984 24.2748 20.2056 24.3097 20.2988 24.3696C20.392 24.4295 20.4682 24.5122 20.5198 24.6099C20.5714 24.7075 20.5969 24.8168 20.5936 24.9271C20.5903 25.0373 20.5585 25.1449 20.5011 25.2394C20.4438 25.3338 20.3629 25.412 20.2663 25.4663C20.1697 25.5206 20.0606 25.5492 19.9496 25.5493V25.5493Z" fill="black"/>
<path d="M21.8864 6.29449H18.0117V10.1456H21.8864V6.29449Z" fill="black"/>
<path d="M19.9493 6.93647C22.8024 6.93647 25.1153 6.1223 25.1153 5.11796C25.1153 4.11362 22.8024 3.29944 19.9493 3.29944C17.0961 3.29944 14.7832 4.11362 14.7832 5.11796C14.7832 6.1223 17.0961 6.93647 19.9493 6.93647Z" fill="black"/>
<path d="M20.5948 16.7777H19.3032V24.0518H20.5948V16.7777Z" fill="black"/>
<path d="M40.4679 39.2319H0V39.6598H40.4679V39.2319Z" fill="#BDD1F9"/>
</svg>
