 <svg xmlns="http://www.w3.org/2000/svg" style="width:20px !important;" class="w-5 h-5"
                             viewBox="0 0 20 20" fill="#545454">
                            <path fill-rule="evenodd" clip-rule="evenodd"
                                  d="M10.0001 18.3334C14.6025 18.3334 18.3334 14.6024 18.3334 10C18.3334 5.39765 14.6025 1.66669 10.0001 1.66669C5.39771 1.66669 1.66675 5.39765 1.66675 10C1.66675 14.6024 5.39771 18.3334 10.0001 18.3334ZM15.5556 10C15.5556 9.32751 15.0098 8.7817 14.3373 8.7817C14.0059 8.7817 13.7135 8.9084 13.4991 9.12283C12.6706 8.52829 11.5205 8.13842 10.2535 8.08969L10.809 5.48735L12.6122 5.86747C12.6317 6.32556 13.0118 6.69593 13.4796 6.69593C13.9572 6.69593 14.3471 6.30606 14.3471 5.82848C14.3471 5.3509 13.9572 4.96103 13.4796 4.96103C13.1385 4.96103 12.8461 5.15597 12.7096 5.44836L10.6921 5.01951C10.6336 5.00977 10.5751 5.01951 10.5264 5.04875C10.4777 5.07799 10.4484 5.12673 10.4289 5.18521L9.8149 8.08969C8.5186 8.12868 7.35876 8.50879 6.52055 9.12283C6.30612 8.91815 6.00398 8.7817 5.68234 8.7817C5.00983 8.7817 4.46402 9.32751 4.46402 10C4.46402 10.4971 4.75642 10.9162 5.18527 11.1111C5.16577 11.2281 5.15603 11.3548 5.15603 11.4815C5.15603 13.3528 7.32952 14.8636 10.0196 14.8636C12.7096 14.8636 14.8831 13.3528 14.8831 11.4815C14.8831 11.3548 14.8734 11.2378 14.8539 11.1209C15.2535 10.9259 15.5556 10.4971 15.5556 10ZM7.2223 10.8675C7.2223 10.3899 7.61217 10 8.08975 10C8.56733 10 8.9572 10.3899 8.9572 10.8675C8.9572 11.345 8.56733 11.7349 8.08975 11.7349C7.61217 11.7349 7.2223 11.345 7.2223 10.8675ZM10.0098 13.7914C10.3412 13.7914 11.4718 13.7525 12.0664 13.1579C12.1541 13.0702 12.1541 12.9337 12.0859 12.8363C11.9981 12.7486 11.8519 12.7486 11.7642 12.8363C11.3841 13.2066 10.5946 13.3431 10.0196 13.3431C9.44453 13.3431 8.64531 13.2066 8.27494 12.8363C8.18722 12.7486 8.04102 12.7486 7.9533 12.8363C7.86558 12.924 7.86558 13.0702 7.9533 13.1579C8.53809 13.7427 9.67844 13.7914 10.0098 13.7914ZM11.9104 11.7349C11.4328 11.7349 11.043 11.345 11.043 10.8675C11.043 10.3899 11.4328 10 11.9104 10C12.388 10 12.7779 10.3899 12.7779 10.8675C12.7779 11.345 12.388 11.7349 11.9104 11.7349Z"></path>
                        </svg>
